<?xml version="1.0" encoding="utf-8" standalone="no"?>
<!DOCTYPE svg PUBLIC "-//W3C//DTD SVG 1.1//EN"
  "http://www.w3.org/Graphics/SVG/1.1/DTD/svg11.dtd">
<!-- Created with matplotlib (http://matplotlib.org/) -->
<svg height="288pt" version="1.1" viewBox="0 0 432 288" width="432pt" xmlns="http://www.w3.org/2000/svg" xmlns:xlink="http://www.w3.org/1999/xlink">
 <defs>
  <style type="text/css">
*{stroke-linecap:butt;stroke-linejoin:round;}
  </style>
 </defs>
 <g id="figure_1">
  <g id="patch_1">
   <path d="M 0 288 
L 432 288 
L 432 0 
L 0 0 
z
" style="fill:#ffffff;"/>
  </g>
  <g id="axes_1">
   <g id="patch_2">
    <path d="M 54 252 
L 388.8 252 
L 388.8 34.56 
L 54 34.56 
z
" style="fill:#ffffff;"/>
   </g>
   <g id="matplotlib.axis_1">
    <g id="xtick_1">
     <g id="line2d_1">
      <path clip-path="url(#pe090548ad0)" d="M 69.434252 252 
L 69.434252 34.56 
" style="fill:none;stroke:#cccccc;stroke-linecap:round;"/>
     </g>
     <g id="line2d_2"/>
     <g id="text_1">
      <!-- 10 -->
      <defs>
       <path d="M 37.25 0 
L 28.46875 0 
L 28.46875 56 
Q 25.296875 52.984375 20.140625 49.953125 
Q 14.984375 46.921875 10.890625 45.40625 
L 10.890625 53.90625 
Q 18.265625 57.375 23.78125 62.296875 
Q 29.296875 67.234375 31.59375 71.875 
L 37.25 71.875 
z
" id="ArialMT-31"/>
       <path d="M 4.15625 35.296875 
Q 4.15625 48 6.765625 55.734375 
Q 9.375 63.484375 14.515625 67.671875 
Q 19.671875 71.875 27.484375 71.875 
Q 33.25 71.875 37.59375 69.546875 
Q 41.9375 67.234375 44.765625 62.859375 
Q 47.609375 58.5 49.21875 52.21875 
Q 50.828125 45.953125 50.828125 35.296875 
Q 50.828125 22.703125 48.234375 14.96875 
Q 45.65625 7.234375 40.5 3 
Q 35.359375 -1.21875 27.484375 -1.21875 
Q 17.140625 -1.21875 11.234375 6.203125 
Q 4.15625 15.140625 4.15625 35.296875 
z
M 13.1875 35.296875 
Q 13.1875 17.671875 17.3125 11.828125 
Q 21.4375 6 27.484375 6 
Q 33.546875 6 37.671875 11.859375 
Q 41.796875 17.71875 41.796875 35.296875 
Q 41.796875 52.984375 37.671875 58.78125 
Q 33.546875 64.59375 27.390625 64.59375 
Q 21.34375 64.59375 17.71875 59.46875 
Q 13.1875 52.9375 13.1875 35.296875 
z
" id="ArialMT-30"/>
      </defs>
      <g style="fill:#262626;" transform="translate(63.873314 266.157812)scale(0.1 -0.1)">
       <use xlink:href="#ArialMT-31"/>
       <use x="55.615234" xlink:href="#ArialMT-30"/>
      </g>
     </g>
    </g>
    <g id="xtick_2">
     <g id="line2d_3">
      <path clip-path="url(#pe090548ad0)" d="M 107.425689 252 
L 107.425689 34.56 
" style="fill:none;stroke:#cccccc;stroke-linecap:round;"/>
     </g>
     <g id="line2d_4"/>
     <g id="text_2">
      <!-- 15 -->
      <defs>
       <path d="M 4.15625 18.75 
L 13.375 19.53125 
Q 14.40625 12.796875 18.140625 9.390625 
Q 21.875 6 27.15625 6 
Q 33.5 6 37.890625 10.78125 
Q 42.28125 15.578125 42.28125 23.484375 
Q 42.28125 31 38.0625 35.34375 
Q 33.84375 39.703125 27 39.703125 
Q 22.75 39.703125 19.328125 37.765625 
Q 15.921875 35.84375 13.96875 32.765625 
L 5.71875 33.84375 
L 12.640625 70.609375 
L 48.25 70.609375 
L 48.25 62.203125 
L 19.671875 62.203125 
L 15.828125 42.96875 
Q 22.265625 47.46875 29.34375 47.46875 
Q 38.71875 47.46875 45.15625 40.96875 
Q 51.609375 34.46875 51.609375 24.265625 
Q 51.609375 14.546875 45.953125 7.46875 
Q 39.0625 -1.21875 27.15625 -1.21875 
Q 17.390625 -1.21875 11.203125 4.25 
Q 5.03125 9.71875 4.15625 18.75 
z
" id="ArialMT-35"/>
      </defs>
      <g style="fill:#262626;" transform="translate(101.864751 266.157812)scale(0.1 -0.1)">
       <use xlink:href="#ArialMT-31"/>
       <use x="55.615234" xlink:href="#ArialMT-35"/>
      </g>
     </g>
    </g>
    <g id="xtick_3">
     <g id="line2d_5">
      <path clip-path="url(#pe090548ad0)" d="M 145.417126 252 
L 145.417126 34.56 
" style="fill:none;stroke:#cccccc;stroke-linecap:round;"/>
     </g>
     <g id="line2d_6"/>
     <g id="text_3">
      <!-- 20 -->
      <defs>
       <path d="M 50.34375 8.453125 
L 50.34375 0 
L 3.03125 0 
Q 2.9375 3.171875 4.046875 6.109375 
Q 5.859375 10.9375 9.828125 15.625 
Q 13.8125 20.3125 21.34375 26.46875 
Q 33.015625 36.03125 37.109375 41.625 
Q 41.21875 47.21875 41.21875 52.203125 
Q 41.21875 57.421875 37.46875 61 
Q 33.734375 64.59375 27.734375 64.59375 
Q 21.390625 64.59375 17.578125 60.78125 
Q 13.765625 56.984375 13.71875 50.25 
L 4.6875 51.171875 
Q 5.609375 61.28125 11.65625 66.578125 
Q 17.71875 71.875 27.9375 71.875 
Q 38.234375 71.875 44.234375 66.15625 
Q 50.25 60.453125 50.25 52 
Q 50.25 47.703125 48.484375 43.546875 
Q 46.734375 39.40625 42.65625 34.8125 
Q 38.578125 30.21875 29.109375 22.21875 
Q 21.1875 15.578125 18.9375 13.203125 
Q 16.703125 10.84375 15.234375 8.453125 
z
" id="ArialMT-32"/>
      </defs>
      <g style="fill:#262626;" transform="translate(139.856188 266.157812)scale(0.1 -0.1)">
       <use xlink:href="#ArialMT-32"/>
       <use x="55.615234" xlink:href="#ArialMT-30"/>
      </g>
     </g>
    </g>
    <g id="xtick_4">
     <g id="line2d_7">
      <path clip-path="url(#pe090548ad0)" d="M 183.408563 252 
L 183.408563 34.56 
" style="fill:none;stroke:#cccccc;stroke-linecap:round;"/>
     </g>
     <g id="line2d_8"/>
     <g id="text_4">
      <!-- 25 -->
      <g style="fill:#262626;" transform="translate(177.847625 266.157812)scale(0.1 -0.1)">
       <use xlink:href="#ArialMT-32"/>
       <use x="55.615234" xlink:href="#ArialMT-35"/>
      </g>
     </g>
    </g>
    <g id="xtick_5">
     <g id="line2d_9">
      <path clip-path="url(#pe090548ad0)" d="M 221.4 252 
L 221.4 34.56 
" style="fill:none;stroke:#cccccc;stroke-linecap:round;"/>
     </g>
     <g id="line2d_10"/>
     <g id="text_5">
      <!-- 30 -->
      <defs>
       <path d="M 4.203125 18.890625 
L 12.984375 20.0625 
Q 14.5 12.59375 18.140625 9.296875 
Q 21.78125 6 27 6 
Q 33.203125 6 37.46875 10.296875 
Q 41.75 14.59375 41.75 20.953125 
Q 41.75 27 37.796875 30.921875 
Q 33.84375 34.859375 27.734375 34.859375 
Q 25.25 34.859375 21.53125 33.890625 
L 22.515625 41.609375 
Q 23.390625 41.5 23.921875 41.5 
Q 29.546875 41.5 34.03125 44.421875 
Q 38.53125 47.359375 38.53125 53.46875 
Q 38.53125 58.296875 35.25 61.46875 
Q 31.984375 64.65625 26.8125 64.65625 
Q 21.6875 64.65625 18.265625 61.421875 
Q 14.84375 58.203125 13.875 51.765625 
L 5.078125 53.328125 
Q 6.6875 62.15625 12.390625 67.015625 
Q 18.109375 71.875 26.609375 71.875 
Q 32.46875 71.875 37.390625 69.359375 
Q 42.328125 66.84375 44.9375 62.5 
Q 47.5625 58.15625 47.5625 53.265625 
Q 47.5625 48.640625 45.0625 44.828125 
Q 42.578125 41.015625 37.703125 38.765625 
Q 44.046875 37.3125 47.5625 32.6875 
Q 51.078125 28.078125 51.078125 21.140625 
Q 51.078125 11.765625 44.234375 5.25 
Q 37.40625 -1.265625 26.953125 -1.265625 
Q 17.53125 -1.265625 11.296875 4.34375 
Q 5.078125 9.96875 4.203125 18.890625 
z
" id="ArialMT-33"/>
      </defs>
      <g style="fill:#262626;" transform="translate(215.839062 266.157812)scale(0.1 -0.1)">
       <use xlink:href="#ArialMT-33"/>
       <use x="55.615234" xlink:href="#ArialMT-30"/>
      </g>
     </g>
    </g>
    <g id="xtick_6">
     <g id="line2d_11">
      <path clip-path="url(#pe090548ad0)" d="M 259.391437 252 
L 259.391437 34.56 
" style="fill:none;stroke:#cccccc;stroke-linecap:round;"/>
     </g>
     <g id="line2d_12"/>
     <g id="text_6">
      <!-- 35 -->
      <g style="fill:#262626;" transform="translate(253.8305 266.157812)scale(0.1 -0.1)">
       <use xlink:href="#ArialMT-33"/>
       <use x="55.615234" xlink:href="#ArialMT-35"/>
      </g>
     </g>
    </g>
    <g id="xtick_7">
     <g id="line2d_13">
      <path clip-path="url(#pe090548ad0)" d="M 297.382874 252 
L 297.382874 34.56 
" style="fill:none;stroke:#cccccc;stroke-linecap:round;"/>
     </g>
     <g id="line2d_14"/>
     <g id="text_7">
      <!-- 40 -->
      <defs>
       <path d="M 32.328125 0 
L 32.328125 17.140625 
L 1.265625 17.140625 
L 1.265625 25.203125 
L 33.9375 71.578125 
L 41.109375 71.578125 
L 41.109375 25.203125 
L 50.78125 25.203125 
L 50.78125 17.140625 
L 41.109375 17.140625 
L 41.109375 0 
z
M 32.328125 25.203125 
L 32.328125 57.46875 
L 9.90625 25.203125 
z
" id="ArialMT-34"/>
      </defs>
      <g style="fill:#262626;" transform="translate(291.821937 266.157812)scale(0.1 -0.1)">
       <use xlink:href="#ArialMT-34"/>
       <use x="55.615234" xlink:href="#ArialMT-30"/>
      </g>
     </g>
    </g>
    <g id="xtick_8">
     <g id="line2d_15">
      <path clip-path="url(#pe090548ad0)" d="M 335.374311 252 
L 335.374311 34.56 
" style="fill:none;stroke:#cccccc;stroke-linecap:round;"/>
     </g>
     <g id="line2d_16"/>
     <g id="text_8">
      <!-- 45 -->
      <g style="fill:#262626;" transform="translate(329.813374 266.157812)scale(0.1 -0.1)">
       <use xlink:href="#ArialMT-34"/>
       <use x="55.615234" xlink:href="#ArialMT-35"/>
      </g>
     </g>
    </g>
    <g id="xtick_9">
     <g id="line2d_17">
      <path clip-path="url(#pe090548ad0)" d="M 373.365748 252 
L 373.365748 34.56 
" style="fill:none;stroke:#cccccc;stroke-linecap:round;"/>
     </g>
     <g id="line2d_18"/>
     <g id="text_9">
      <!-- 50 -->
      <g style="fill:#262626;" transform="translate(367.804811 266.157812)scale(0.1 -0.1)">
       <use xlink:href="#ArialMT-35"/>
       <use x="55.615234" xlink:href="#ArialMT-30"/>
      </g>
     </g>
    </g>
    <g id="text_10">
     <!-- age -->
     <defs>
      <path d="M 40.4375 6.390625 
Q 35.546875 2.25 31.03125 0.53125 
Q 26.515625 -1.171875 21.34375 -1.171875 
Q 12.796875 -1.171875 8.203125 3 
Q 3.609375 7.171875 3.609375 13.671875 
Q 3.609375 17.484375 5.34375 20.625 
Q 7.078125 23.78125 9.890625 25.6875 
Q 12.703125 27.59375 16.21875 28.5625 
Q 18.796875 29.25 24.03125 29.890625 
Q 34.671875 31.15625 39.703125 32.90625 
Q 39.75 34.71875 39.75 35.203125 
Q 39.75 40.578125 37.25 42.78125 
Q 33.890625 45.75 27.25 45.75 
Q 21.046875 45.75 18.09375 43.578125 
Q 15.140625 41.40625 13.71875 35.890625 
L 5.125 37.0625 
Q 6.296875 42.578125 8.984375 45.96875 
Q 11.671875 49.359375 16.75 51.1875 
Q 21.828125 53.03125 28.515625 53.03125 
Q 35.15625 53.03125 39.296875 51.46875 
Q 43.453125 49.90625 45.40625 47.53125 
Q 47.359375 45.171875 48.140625 41.546875 
Q 48.578125 39.3125 48.578125 33.453125 
L 48.578125 21.734375 
Q 48.578125 9.46875 49.140625 6.21875 
Q 49.703125 2.984375 51.375 0 
L 42.1875 0 
Q 40.828125 2.734375 40.4375 6.390625 
z
M 39.703125 26.03125 
Q 34.90625 24.078125 25.34375 22.703125 
Q 19.921875 21.921875 17.671875 20.9375 
Q 15.4375 19.96875 14.203125 18.09375 
Q 12.984375 16.21875 12.984375 13.921875 
Q 12.984375 10.40625 15.640625 8.0625 
Q 18.3125 5.71875 23.4375 5.71875 
Q 28.515625 5.71875 32.46875 7.9375 
Q 36.421875 10.15625 38.28125 14.015625 
Q 39.703125 17 39.703125 22.796875 
z
" id="ArialMT-61"/>
      <path d="M 4.984375 -4.296875 
L 13.53125 -5.5625 
Q 14.0625 -9.515625 16.5 -11.328125 
Q 19.78125 -13.765625 25.4375 -13.765625 
Q 31.546875 -13.765625 34.859375 -11.328125 
Q 38.1875 -8.890625 39.359375 -4.5 
Q 40.046875 -1.8125 39.984375 6.78125 
Q 34.234375 0 25.640625 0 
Q 14.9375 0 9.078125 7.71875 
Q 3.21875 15.4375 3.21875 26.21875 
Q 3.21875 33.640625 5.90625 39.90625 
Q 8.59375 46.1875 13.6875 49.609375 
Q 18.796875 53.03125 25.6875 53.03125 
Q 34.859375 53.03125 40.828125 45.609375 
L 40.828125 51.859375 
L 48.921875 51.859375 
L 48.921875 7.03125 
Q 48.921875 -5.078125 46.453125 -10.125 
Q 44 -15.1875 38.640625 -18.109375 
Q 33.296875 -21.046875 25.484375 -21.046875 
Q 16.21875 -21.046875 10.5 -16.875 
Q 4.78125 -12.703125 4.984375 -4.296875 
z
M 12.25 26.859375 
Q 12.25 16.65625 16.296875 11.96875 
Q 20.359375 7.28125 26.46875 7.28125 
Q 32.515625 7.28125 36.609375 11.9375 
Q 40.71875 16.609375 40.71875 26.5625 
Q 40.71875 36.078125 36.5 40.90625 
Q 32.28125 45.75 26.3125 45.75 
Q 20.453125 45.75 16.34375 40.984375 
Q 12.25 36.234375 12.25 26.859375 
z
" id="ArialMT-67"/>
      <path d="M 42.09375 16.703125 
L 51.171875 15.578125 
Q 49.03125 7.625 43.21875 3.21875 
Q 37.40625 -1.171875 28.375 -1.171875 
Q 17 -1.171875 10.328125 5.828125 
Q 3.65625 12.84375 3.65625 25.484375 
Q 3.65625 38.578125 10.390625 45.796875 
Q 17.140625 53.03125 27.875 53.03125 
Q 38.28125 53.03125 44.875 45.953125 
Q 51.46875 38.875 51.46875 26.03125 
Q 51.46875 25.25 51.421875 23.6875 
L 12.75 23.6875 
Q 13.234375 15.140625 17.578125 10.59375 
Q 21.921875 6.0625 28.421875 6.0625 
Q 33.25 6.0625 36.671875 8.59375 
Q 40.09375 11.140625 42.09375 16.703125 
z
M 13.234375 30.90625 
L 42.1875 30.90625 
Q 41.609375 37.453125 38.875 40.71875 
Q 34.671875 45.796875 27.984375 45.796875 
Q 21.921875 45.796875 17.796875 41.75 
Q 13.671875 37.703125 13.234375 30.90625 
z
" id="ArialMT-65"/>
     </defs>
     <g style="fill:#262626;" transform="translate(212.224453 279.89)scale(0.11 -0.11)">
      <use xlink:href="#ArialMT-61"/>
      <use x="55.615234" xlink:href="#ArialMT-67"/>
      <use x="111.230469" xlink:href="#ArialMT-65"/>
     </g>
    </g>
   </g>
   <g id="matplotlib.axis_2">
    <g id="ytick_1">
     <g id="line2d_19">
      <path clip-path="url(#pe090548ad0)" d="M 54 233.88 
L 388.8 233.88 
" style="fill:none;stroke:#cccccc;stroke-linecap:round;"/>
     </g>
     <g id="line2d_20"/>
     <g id="text_11">
      <!-- 0.0 -->
      <defs>
       <path d="M 9.078125 0 
L 9.078125 10.015625 
L 19.09375 10.015625 
L 19.09375 0 
z
" id="ArialMT-2e"/>
      </defs>
      <g style="fill:#262626;" transform="translate(33.1 237.458906)scale(0.1 -0.1)">
       <use xlink:href="#ArialMT-30"/>
       <use x="55.615234" xlink:href="#ArialMT-2e"/>
       <use x="83.398438" xlink:href="#ArialMT-30"/>
      </g>
     </g>
    </g>
    <g id="ytick_2">
     <g id="line2d_21">
      <path clip-path="url(#pe090548ad0)" d="M 54 197.64 
L 388.8 197.64 
" style="fill:none;stroke:#cccccc;stroke-linecap:round;"/>
     </g>
     <g id="line2d_22"/>
     <g id="text_12">
      <!-- 0.2 -->
      <g style="fill:#262626;" transform="translate(33.1 201.218906)scale(0.1 -0.1)">
       <use xlink:href="#ArialMT-30"/>
       <use x="55.615234" xlink:href="#ArialMT-2e"/>
       <use x="83.398438" xlink:href="#ArialMT-32"/>
      </g>
     </g>
    </g>
    <g id="ytick_3">
     <g id="line2d_23">
      <path clip-path="url(#pe090548ad0)" d="M 54 161.4 
L 388.8 161.4 
" style="fill:none;stroke:#cccccc;stroke-linecap:round;"/>
     </g>
     <g id="line2d_24"/>
     <g id="text_13">
      <!-- 0.4 -->
      <g style="fill:#262626;" transform="translate(33.1 164.978906)scale(0.1 -0.1)">
       <use xlink:href="#ArialMT-30"/>
       <use x="55.615234" xlink:href="#ArialMT-2e"/>
       <use x="83.398438" xlink:href="#ArialMT-34"/>
      </g>
     </g>
    </g>
    <g id="ytick_4">
     <g id="line2d_25">
      <path clip-path="url(#pe090548ad0)" d="M 54 125.16 
L 388.8 125.16 
" style="fill:none;stroke:#cccccc;stroke-linecap:round;"/>
     </g>
     <g id="line2d_26"/>
     <g id="text_14">
      <!-- 0.6 -->
      <defs>
       <path d="M 49.75 54.046875 
L 41.015625 53.375 
Q 39.84375 58.546875 37.703125 60.890625 
Q 34.125 64.65625 28.90625 64.65625 
Q 24.703125 64.65625 21.53125 62.3125 
Q 17.390625 59.28125 14.984375 53.46875 
Q 12.59375 47.65625 12.5 36.921875 
Q 15.671875 41.75 20.265625 44.09375 
Q 24.859375 46.4375 29.890625 46.4375 
Q 38.671875 46.4375 44.84375 39.96875 
Q 51.03125 33.5 51.03125 23.25 
Q 51.03125 16.5 48.125 10.71875 
Q 45.21875 4.9375 40.140625 1.859375 
Q 35.0625 -1.21875 28.609375 -1.21875 
Q 17.625 -1.21875 10.6875 6.859375 
Q 3.765625 14.9375 3.765625 33.5 
Q 3.765625 54.25 11.421875 63.671875 
Q 18.109375 71.875 29.4375 71.875 
Q 37.890625 71.875 43.28125 67.140625 
Q 48.6875 62.40625 49.75 54.046875 
z
M 13.875 23.1875 
Q 13.875 18.65625 15.796875 14.5 
Q 17.71875 10.359375 21.1875 8.171875 
Q 24.65625 6 28.46875 6 
Q 34.03125 6 38.03125 10.484375 
Q 42.046875 14.984375 42.046875 22.703125 
Q 42.046875 30.125 38.078125 34.390625 
Q 34.125 38.671875 28.125 38.671875 
Q 22.171875 38.671875 18.015625 34.390625 
Q 13.875 30.125 13.875 23.1875 
z
" id="ArialMT-36"/>
      </defs>
      <g style="fill:#262626;" transform="translate(33.1 128.738906)scale(0.1 -0.1)">
       <use xlink:href="#ArialMT-30"/>
       <use x="55.615234" xlink:href="#ArialMT-2e"/>
       <use x="83.398438" xlink:href="#ArialMT-36"/>
      </g>
     </g>
    </g>
    <g id="ytick_5">
     <g id="line2d_27">
      <path clip-path="url(#pe090548ad0)" d="M 54 88.92 
L 388.8 88.92 
" style="fill:none;stroke:#cccccc;stroke-linecap:round;"/>
     </g>
     <g id="line2d_28"/>
     <g id="text_15">
      <!-- 0.8 -->
      <defs>
       <path d="M 17.671875 38.8125 
Q 12.203125 40.828125 9.5625 44.53125 
Q 6.9375 48.25 6.9375 53.421875 
Q 6.9375 61.234375 12.546875 66.546875 
Q 18.171875 71.875 27.484375 71.875 
Q 36.859375 71.875 42.578125 66.421875 
Q 48.296875 60.984375 48.296875 53.171875 
Q 48.296875 48.1875 45.671875 44.5 
Q 43.0625 40.828125 37.75 38.8125 
Q 44.34375 36.671875 47.78125 31.875 
Q 51.21875 27.09375 51.21875 20.453125 
Q 51.21875 11.28125 44.71875 5.03125 
Q 38.234375 -1.21875 27.640625 -1.21875 
Q 17.046875 -1.21875 10.546875 5.046875 
Q 4.046875 11.328125 4.046875 20.703125 
Q 4.046875 27.6875 7.59375 32.390625 
Q 11.140625 37.109375 17.671875 38.8125 
z
M 15.921875 53.71875 
Q 15.921875 48.640625 19.1875 45.40625 
Q 22.46875 42.1875 27.6875 42.1875 
Q 32.765625 42.1875 36.015625 45.375 
Q 39.265625 48.578125 39.265625 53.21875 
Q 39.265625 58.0625 35.90625 61.359375 
Q 32.5625 64.65625 27.59375 64.65625 
Q 22.5625 64.65625 19.234375 61.421875 
Q 15.921875 58.203125 15.921875 53.71875 
z
M 13.09375 20.65625 
Q 13.09375 16.890625 14.875 13.375 
Q 16.65625 9.859375 20.171875 7.921875 
Q 23.6875 6 27.734375 6 
Q 34.03125 6 38.125 10.046875 
Q 42.234375 14.109375 42.234375 20.359375 
Q 42.234375 26.703125 38.015625 30.859375 
Q 33.796875 35.015625 27.4375 35.015625 
Q 21.234375 35.015625 17.15625 30.90625 
Q 13.09375 26.8125 13.09375 20.65625 
z
" id="ArialMT-38"/>
      </defs>
      <g style="fill:#262626;" transform="translate(33.1 92.498906)scale(0.1 -0.1)">
       <use xlink:href="#ArialMT-30"/>
       <use x="55.615234" xlink:href="#ArialMT-2e"/>
       <use x="83.398438" xlink:href="#ArialMT-38"/>
      </g>
     </g>
    </g>
    <g id="ytick_6">
     <g id="line2d_29">
      <path clip-path="url(#pe090548ad0)" d="M 54 52.68 
L 388.8 52.68 
" style="fill:none;stroke:#cccccc;stroke-linecap:round;"/>
     </g>
     <g id="line2d_30"/>
     <g id="text_16">
      <!-- 1.0 -->
      <g style="fill:#262626;" transform="translate(33.1 56.258906)scale(0.1 -0.1)">
       <use xlink:href="#ArialMT-31"/>
       <use x="55.615234" xlink:href="#ArialMT-2e"/>
       <use x="83.398438" xlink:href="#ArialMT-30"/>
      </g>
     </g>
    </g>
    <g id="text_17">
     <!-- liked movie -->
     <defs>
      <path d="M 6.390625 0 
L 6.390625 71.578125 
L 15.1875 71.578125 
L 15.1875 0 
z
" id="ArialMT-6c"/>
      <path d="M 6.640625 61.46875 
L 6.640625 71.578125 
L 15.4375 71.578125 
L 15.4375 61.46875 
z
M 6.640625 0 
L 6.640625 51.859375 
L 15.4375 51.859375 
L 15.4375 0 
z
" id="ArialMT-69"/>
      <path d="M 6.640625 0 
L 6.640625 71.578125 
L 15.4375 71.578125 
L 15.4375 30.765625 
L 36.234375 51.859375 
L 47.609375 51.859375 
L 27.78125 32.625 
L 49.609375 0 
L 38.765625 0 
L 21.625 26.515625 
L 15.4375 20.5625 
L 15.4375 0 
z
" id="ArialMT-6b"/>
      <path d="M 40.234375 0 
L 40.234375 6.546875 
Q 35.296875 -1.171875 25.734375 -1.171875 
Q 19.53125 -1.171875 14.328125 2.25 
Q 9.125 5.671875 6.265625 11.796875 
Q 3.421875 17.921875 3.421875 25.875 
Q 3.421875 33.640625 6 39.96875 
Q 8.59375 46.296875 13.765625 49.65625 
Q 18.953125 53.03125 25.34375 53.03125 
Q 30.03125 53.03125 33.6875 51.046875 
Q 37.359375 49.078125 39.65625 45.90625 
L 39.65625 71.578125 
L 48.390625 71.578125 
L 48.390625 0 
z
M 12.453125 25.875 
Q 12.453125 15.921875 16.640625 10.984375 
Q 20.84375 6.0625 26.5625 6.0625 
Q 32.328125 6.0625 36.34375 10.765625 
Q 40.375 15.484375 40.375 25.140625 
Q 40.375 35.796875 36.265625 40.765625 
Q 32.171875 45.75 26.171875 45.75 
Q 20.3125 45.75 16.375 40.96875 
Q 12.453125 36.1875 12.453125 25.875 
z
" id="ArialMT-64"/>
      <path id="ArialMT-20"/>
      <path d="M 6.59375 0 
L 6.59375 51.859375 
L 14.453125 51.859375 
L 14.453125 44.578125 
Q 16.890625 48.390625 20.9375 50.703125 
Q 25 53.03125 30.171875 53.03125 
Q 35.9375 53.03125 39.625 50.640625 
Q 43.3125 48.25 44.828125 43.953125 
Q 50.984375 53.03125 60.84375 53.03125 
Q 68.5625 53.03125 72.703125 48.75 
Q 76.859375 44.484375 76.859375 35.59375 
L 76.859375 0 
L 68.109375 0 
L 68.109375 32.671875 
Q 68.109375 37.9375 67.25 40.25 
Q 66.40625 42.578125 64.15625 43.984375 
Q 61.921875 45.40625 58.890625 45.40625 
Q 53.421875 45.40625 49.796875 41.765625 
Q 46.1875 38.140625 46.1875 30.125 
L 46.1875 0 
L 37.40625 0 
L 37.40625 33.6875 
Q 37.40625 39.546875 35.25 42.46875 
Q 33.109375 45.40625 28.21875 45.40625 
Q 24.515625 45.40625 21.359375 43.453125 
Q 18.21875 41.5 16.796875 37.734375 
Q 15.375 33.984375 15.375 26.90625 
L 15.375 0 
z
" id="ArialMT-6d"/>
      <path d="M 3.328125 25.921875 
Q 3.328125 40.328125 11.328125 47.265625 
Q 18.015625 53.03125 27.640625 53.03125 
Q 38.328125 53.03125 45.109375 46.015625 
Q 51.90625 39.015625 51.90625 26.65625 
Q 51.90625 16.65625 48.90625 10.90625 
Q 45.90625 5.171875 40.15625 2 
Q 34.421875 -1.171875 27.640625 -1.171875 
Q 16.75 -1.171875 10.03125 5.8125 
Q 3.328125 12.796875 3.328125 25.921875 
z
M 12.359375 25.921875 
Q 12.359375 15.96875 16.703125 11.015625 
Q 21.046875 6.0625 27.640625 6.0625 
Q 34.1875 6.0625 38.53125 11.03125 
Q 42.875 16.015625 42.875 26.21875 
Q 42.875 35.84375 38.5 40.796875 
Q 34.125 45.75 27.640625 45.75 
Q 21.046875 45.75 16.703125 40.8125 
Q 12.359375 35.890625 12.359375 25.921875 
z
" id="ArialMT-6f"/>
      <path d="M 21 0 
L 1.265625 51.859375 
L 10.546875 51.859375 
L 21.6875 20.796875 
Q 23.484375 15.765625 25 10.359375 
Q 26.171875 14.453125 28.265625 20.21875 
L 39.796875 51.859375 
L 48.828125 51.859375 
L 29.203125 0 
z
" id="ArialMT-76"/>
     </defs>
     <g style="fill:#262626;" transform="translate(26.91375 170.789453)rotate(-90)scale(0.11 -0.11)">
      <use xlink:href="#ArialMT-6c"/>
      <use x="22.216797" xlink:href="#ArialMT-69"/>
      <use x="44.433594" xlink:href="#ArialMT-6b"/>
      <use x="94.433594" xlink:href="#ArialMT-65"/>
      <use x="150.048828" xlink:href="#ArialMT-64"/>
      <use x="205.664062" xlink:href="#ArialMT-20"/>
      <use x="233.447266" xlink:href="#ArialMT-6d"/>
      <use x="316.748047" xlink:href="#ArialMT-6f"/>
      <use x="372.363281" xlink:href="#ArialMT-76"/>
      <use x="422.363281" xlink:href="#ArialMT-69"/>
      <use x="444.580078" xlink:href="#ArialMT-65"/>
     </g>
    </g>
   </g>
   <g id="PathCollection_1">
    <defs>
     <path d="M 0 3.5 
C 0.928211 3.5 1.81853 3.131218 2.474874 2.474874 
C 3.131218 1.81853 3.5 0.928211 3.5 0 
C 3.5 -0.928211 3.131218 -1.81853 2.474874 -2.474874 
C 1.81853 -3.131218 0.928211 -3.5 0 -3.5 
C -0.928211 -3.5 -1.81853 -3.131218 -2.474874 -2.474874 
C -3.131218 -1.81853 -3.5 -0.928211 -3.5 0 
C -3.5 0.928211 -3.131218 1.81853 -2.474874 2.474874 
C -1.81853 3.131218 -0.928211 3.5 0 3.5 
z
" id="mca47491617"/>
    </defs>
    <g clip-path="url(#pe090548ad0)">
     <use style="fill:#4c72b0;fill-opacity:0.8;" x="69.434252" xlink:href="#mca47491617" y="50.461846"/>
     <use style="fill:#4c72b0;fill-opacity:0.8;" x="69.434252" xlink:href="#mca47491617" y="49.658036"/>
     <use style="fill:#4c72b0;fill-opacity:0.8;" x="69.434252" xlink:href="#mca47491617" y="51.02271"/>
     <use style="fill:#4c72b0;fill-opacity:0.8;" x="69.434252" xlink:href="#mca47491617" y="233.415377"/>
     <use style="fill:#4c72b0;fill-opacity:0.8;" x="69.434252" xlink:href="#mca47491617" y="232.463404"/>
     <use style="fill:#4c72b0;fill-opacity:0.8;" x="69.434252" xlink:href="#mca47491617" y="232.818676"/>
     <use style="fill:#4c72b0;fill-opacity:0.8;" x="107.425689" xlink:href="#mca47491617" y="54.649555"/>
     <use style="fill:#4c72b0;fill-opacity:0.8;" x="107.425689" xlink:href="#mca47491617" y="50.130324"/>
     <use style="fill:#4c72b0;fill-opacity:0.8;" x="107.425689" xlink:href="#mca47491617" y="50.633625"/>
     <use style="fill:#4c72b0;fill-opacity:0.8;" x="107.425689" xlink:href="#mca47491617" y="51.097495"/>
     <use style="fill:#4c72b0;fill-opacity:0.8;" x="107.425689" xlink:href="#mca47491617" y="235.549147"/>
     <use style="fill:#4c72b0;fill-opacity:0.8;" x="107.425689" xlink:href="#mca47491617" y="233.023973"/>
     <use style="fill:#4c72b0;fill-opacity:0.8;" x="107.425689" xlink:href="#mca47491617" y="236.950704"/>
     <use style="fill:#4c72b0;fill-opacity:0.8;" x="107.425689" xlink:href="#mca47491617" y="233.805226"/>
     <use style="fill:#4c72b0;fill-opacity:0.8;" x="115.023976" xlink:href="#mca47491617" y="50.051753"/>
     <use style="fill:#4c72b0;fill-opacity:0.8;" x="115.023976" xlink:href="#mca47491617" y="55.585616"/>
     <use style="fill:#4c72b0;fill-opacity:0.8;" x="115.023976" xlink:href="#mca47491617" y="50.438288"/>
     <use style="fill:#4c72b0;fill-opacity:0.8;" x="115.023976" xlink:href="#mca47491617" y="234.447493"/>
     <use style="fill:#4c72b0;fill-opacity:0.8;" x="115.023976" xlink:href="#mca47491617" y="233.796218"/>
     <use style="fill:#4c72b0;fill-opacity:0.8;" x="115.023976" xlink:href="#mca47491617" y="234.788021"/>
     <use style="fill:#4c72b0;fill-opacity:0.8;" x="130.220551" xlink:href="#mca47491617" y="55.482816"/>
     <use style="fill:#4c72b0;fill-opacity:0.8;" x="130.220551" xlink:href="#mca47491617" y="52.622134"/>
     <use style="fill:#4c72b0;fill-opacity:0.8;" x="130.220551" xlink:href="#mca47491617" y="235.313973"/>
     <use style="fill:#4c72b0;fill-opacity:0.8;" x="130.220551" xlink:href="#mca47491617" y="231.487371"/>
     <use style="fill:#4c72b0;fill-opacity:0.8;" x="130.220551" xlink:href="#mca47491617" y="231.386995"/>
     <use style="fill:#4c72b0;fill-opacity:0.8;" x="130.220551" xlink:href="#mca47491617" y="54.175996"/>
     <use style="fill:#4c72b0;fill-opacity:0.8;" x="145.417126" xlink:href="#mca47491617" y="49.395611"/>
     <use style="fill:#4c72b0;fill-opacity:0.8;" x="145.417126" xlink:href="#mca47491617" y="234.457391"/>
     <use style="fill:#4c72b0;fill-opacity:0.8;" x="145.417126" xlink:href="#mca47491617" y="237.037044"/>
     <use style="fill:#4c72b0;fill-opacity:0.8;" x="145.417126" xlink:href="#mca47491617" y="233.772707"/>
     <use style="fill:#4c72b0;fill-opacity:0.8;" x="145.417126" xlink:href="#mca47491617" y="50.956688"/>
     <use style="fill:#4c72b0;fill-opacity:0.8;" x="183.408563" xlink:href="#mca47491617" y="50.070823"/>
     <use style="fill:#4c72b0;fill-opacity:0.8;" x="183.408563" xlink:href="#mca47491617" y="230.729436"/>
     <use style="fill:#4c72b0;fill-opacity:0.8;" x="183.408563" xlink:href="#mca47491617" y="237.090718"/>
     <use style="fill:#4c72b0;fill-opacity:0.8;" x="183.408563" xlink:href="#mca47491617" y="235.053425"/>
     <use style="fill:#4c72b0;fill-opacity:0.8;" x="183.408563" xlink:href="#mca47491617" y="235.577565"/>
     <use style="fill:#4c72b0;fill-opacity:0.8;" x="183.408563" xlink:href="#mca47491617" y="54.109032"/>
     <use style="fill:#4c72b0;fill-opacity:0.8;" x="221.4" xlink:href="#mca47491617" y="55.384728"/>
     <use style="fill:#4c72b0;fill-opacity:0.8;" x="221.4" xlink:href="#mca47491617" y="235.94191"/>
     <use style="fill:#4c72b0;fill-opacity:0.8;" x="221.4" xlink:href="#mca47491617" y="235.110081"/>
     <use style="fill:#4c72b0;fill-opacity:0.8;" x="221.4" xlink:href="#mca47491617" y="236.23162"/>
     <use style="fill:#4c72b0;fill-opacity:0.8;" x="221.4" xlink:href="#mca47491617" y="231.574564"/>
     <use style="fill:#4c72b0;fill-opacity:0.8;" x="221.4" xlink:href="#mca47491617" y="51.942894"/>
     <use style="fill:#4c72b0;fill-opacity:0.8;" x="259.391437" xlink:href="#mca47491617" y="231.396141"/>
     <use style="fill:#4c72b0;fill-opacity:0.8;" x="259.391437" xlink:href="#mca47491617" y="232.252835"/>
     <use style="fill:#4c72b0;fill-opacity:0.8;" x="259.391437" xlink:href="#mca47491617" y="232.573931"/>
     <use style="fill:#4c72b0;fill-opacity:0.8;" x="259.391437" xlink:href="#mca47491617" y="231.275274"/>
     <use style="fill:#4c72b0;fill-opacity:0.8;" x="259.391437" xlink:href="#mca47491617" y="233.712317"/>
     <use style="fill:#4c72b0;fill-opacity:0.8;" x="297.382874" xlink:href="#mca47491617" y="54.818288"/>
     <use style="fill:#4c72b0;fill-opacity:0.8;" x="297.382874" xlink:href="#mca47491617" y="232.326491"/>
     <use style="fill:#4c72b0;fill-opacity:0.8;" x="297.382874" xlink:href="#mca47491617" y="236.440883"/>
     <use style="fill:#4c72b0;fill-opacity:0.8;" x="297.382874" xlink:href="#mca47491617" y="230.868017"/>
     <use style="fill:#4c72b0;fill-opacity:0.8;" x="297.382874" xlink:href="#mca47491617" y="232.373686"/>
     <use style="fill:#4c72b0;fill-opacity:0.8;" x="297.382874" xlink:href="#mca47491617" y="237.128919"/>
     <use style="fill:#4c72b0;fill-opacity:0.8;" x="297.382874" xlink:href="#mca47491617" y="233.445496"/>
     <use style="fill:#4c72b0;fill-opacity:0.8;" x="335.374311" xlink:href="#mca47491617" y="235.601511"/>
     <use style="fill:#4c72b0;fill-opacity:0.8;" x="335.374311" xlink:href="#mca47491617" y="235.121474"/>
     <use style="fill:#4c72b0;fill-opacity:0.8;" x="373.365748" xlink:href="#mca47491617" y="236.718059"/>
     <use style="fill:#4c72b0;fill-opacity:0.8;" x="373.365748" xlink:href="#mca47491617" y="232.42036"/>
    </g>
   </g>
   <g id="PolyCollection_1">
    <path clip-path="url(#pe090548ad0)" d="M 54 83.977461 
L 54 165.335378 
L 57.381818 165.850617 
L 60.763636 166.418844 
L 64.145455 166.89346 
L 67.527273 167.364724 
L 70.909091 167.967073 
L 74.290909 168.603592 
L 77.672727 169.240111 
L 81.054545 170.241807 
L 84.436364 171.250175 
L 87.818182 172.253593 
L 91.2 172.975061 
L 94.581818 173.192219 
L 97.963636 173.990277 
L 101.345455 174.424531 
L 104.727273 174.856 
L 108.109091 175.31622 
L 111.490909 175.870344 
L 114.872727 176.664556 
L 118.254545 177.528529 
L 121.636364 178.27083 
L 125.018182 179.013131 
L 128.4 179.746401 
L 131.781818 180.483743 
L 135.163636 181.225284 
L 138.545455 182.011419 
L 141.927273 182.948281 
L 145.309091 183.792437 
L 148.690909 184.822005 
L 152.072727 185.448729 
L 155.454545 186.346926 
L 158.836364 187.245124 
L 162.218182 188.143321 
L 165.6 189.041518 
L 168.981818 189.939095 
L 172.363636 190.579278 
L 175.745455 191.112764 
L 179.127273 192.150965 
L 182.509091 193.287889 
L 185.890909 193.934249 
L 189.272727 195.038526 
L 192.654545 196.071716 
L 196.036364 196.960662 
L 199.418182 198.037129 
L 202.8 198.938734 
L 206.181818 200.001291 
L 209.563636 201.174558 
L 212.945455 202.309476 
L 216.327273 203.327411 
L 219.709091 204.309311 
L 223.090909 205.324531 
L 226.472727 206.564983 
L 229.854545 207.896709 
L 233.236364 209.106779 
L 236.618182 210.113845 
L 240 211.297724 
L 243.381818 212.816366 
L 246.763636 214.011812 
L 250.145455 215.375021 
L 253.527273 216.924462 
L 256.909091 218.404847 
L 260.290909 219.473511 
L 263.672727 220.929 
L 267.054545 222.385976 
L 270.436364 223.86785 
L 273.818182 225.677352 
L 277.2 227.377712 
L 280.581818 228.836233 
L 283.963636 230.255853 
L 287.345455 232.049673 
L 290.727273 233.339232 
L 294.109091 235.119716 
L 297.490909 236.976622 
L 300.872727 238.484077 
L 304.254545 239.836513 
L 307.636364 241.64142 
L 311.018182 243.446327 
L 314.4 245.242812 
L 317.781818 246.909928 
L 321.163636 248.606373 
L 324.545455 250.46312 
L 327.927273 252.341284 
L 331.309091 254.224674 
L 334.690909 256.079549 
L 338.072727 257.964834 
L 341.454545 259.667489 
L 344.836364 261.467802 
L 348.218182 263.407867 
L 351.6 265.423761 
L 354.981818 267.294344 
L 358.363636 269.163477 
L 361.745455 271.149088 
L 365.127273 273.03224 
L 368.509091 274.890069 
L 371.890909 276.791569 
L 375.272727 278.674223 
L 378.654545 280.553771 
L 382.036364 282.430408 
L 385.418182 284.23118 
L 388.8 286.03127 
L 388.8 205.940308 
L 388.8 205.940308 
L 385.418182 205.31382 
L 382.036364 204.977063 
L 378.654545 204.643369 
L 375.272727 204.309676 
L 371.890909 203.813584 
L 368.509091 203.090791 
L 365.127273 202.096972 
L 361.745455 201.103153 
L 358.363636 200.109335 
L 354.981818 199.325368 
L 351.6 198.804705 
L 348.218182 198.209225 
L 344.836364 197.39991 
L 341.454545 196.740148 
L 338.072727 195.950233 
L 334.690909 195.249597 
L 331.309091 194.756188 
L 327.927273 194.26278 
L 324.545455 193.774075 
L 321.163636 192.976342 
L 317.781818 192.146984 
L 314.4 191.725478 
L 311.018182 191.222322 
L 307.636364 190.874887 
L 304.254545 190.121524 
L 300.872727 189.608857 
L 297.490909 189.166275 
L 294.109091 188.485817 
L 290.727273 187.536417 
L 287.345455 186.999625 
L 283.963636 186.06405 
L 280.581818 185.057702 
L 277.2 184.051354 
L 273.818182 183.160673 
L 270.436364 182.376108 
L 267.054545 181.287695 
L 263.672727 180.128223 
L 260.290909 179.411772 
L 256.909091 178.610151 
L 253.527273 177.737275 
L 250.145455 176.880216 
L 246.763636 175.756551 
L 243.381818 174.461857 
L 240 173.054482 
L 236.618182 172.023121 
L 233.236364 171.140955 
L 229.854545 170.260762 
L 226.472727 169.444829 
L 223.090909 167.991078 
L 219.709091 166.909659 
L 216.327273 165.675605 
L 212.945455 164.239043 
L 209.563636 162.294161 
L 206.181818 160.81487 
L 202.8 159.48786 
L 199.418182 158.263876 
L 196.036364 157.173249 
L 192.654545 155.649428 
L 189.272727 153.708667 
L 185.890909 152.224672 
L 182.509091 150.901245 
L 179.127273 149.303538 
L 175.745455 147.685788 
L 172.363636 146.172467 
L 168.981818 144.748584 
L 165.6 143.278273 
L 162.218182 141.839735 
L 158.836364 140.325934 
L 155.454545 138.54139 
L 152.072727 136.76876 
L 148.690909 134.96224 
L 145.309091 133.307724 
L 141.927273 131.703166 
L 138.545455 130.09375 
L 135.163636 128.03662 
L 131.781818 126.087224 
L 128.4 124.728978 
L 125.018182 122.85218 
L 121.636364 120.975383 
L 118.254545 119.125558 
L 114.872727 117.703356 
L 111.490909 116.252618 
L 108.109091 114.528176 
L 104.727273 112.679053 
L 101.345455 110.768339 
L 97.963636 108.961503 
L 94.581818 106.946415 
L 91.2 104.870456 
L 87.818182 102.799232 
L 84.436364 100.927123 
L 81.054545 99.133861 
L 77.672727 97.346463 
L 74.290909 95.559536 
L 70.909091 93.766888 
L 67.527273 91.972917 
L 64.145455 89.904618 
L 60.763636 87.986996 
L 57.381818 86.025779 
L 54 83.977461 
z
" style="fill:#4c72b0;fill-opacity:0.15;"/>
   </g>
   <g id="line2d_31">
    <path clip-path="url(#pe090548ad0)" d="M 54 125.786606 
L 57.381818 127.025953 
L 60.763636 128.2653 
L 64.145455 129.504646 
L 67.527273 130.743993 
L 70.909091 131.983339 
L 74.290909 133.222686 
L 77.672727 134.462032 
L 81.054545 135.701379 
L 84.436364 136.940726 
L 87.818182 138.180072 
L 91.2 139.419419 
L 94.581818 140.658765 
L 97.963636 141.898112 
L 101.345455 143.137458 
L 104.727273 144.376805 
L 108.109091 145.616152 
L 111.490909 146.855498 
L 114.872727 148.094845 
L 118.254545 149.334191 
L 121.636364 150.573538 
L 125.018182 151.812885 
L 128.4 153.052231 
L 131.781818 154.291578 
L 135.163636 155.530924 
L 138.545455 156.770271 
L 141.927273 158.009617 
L 145.309091 159.248964 
L 148.690909 160.488311 
L 152.072727 161.727657 
L 155.454545 162.967004 
L 158.836364 164.20635 
L 162.218182 165.445697 
L 165.6 166.685043 
L 168.981818 167.92439 
L 172.363636 169.163737 
L 175.745455 170.403083 
L 179.127273 171.64243 
L 182.509091 172.881776 
L 185.890909 174.121123 
L 189.272727 175.36047 
L 192.654545 176.599816 
L 196.036364 177.839163 
L 199.418182 179.078509 
L 202.8 180.317856 
L 206.181818 181.557202 
L 209.563636 182.796549 
L 212.945455 184.035896 
L 216.327273 185.275242 
L 219.709091 186.514589 
L 223.090909 187.753935 
L 226.472727 188.993282 
L 229.854545 190.232628 
L 233.236364 191.471975 
L 236.618182 192.711322 
L 240 193.950668 
L 243.381818 195.190015 
L 246.763636 196.429361 
L 250.145455 197.668708 
L 253.527273 198.908054 
L 256.909091 200.147401 
L 260.290909 201.386748 
L 263.672727 202.626094 
L 267.054545 203.865441 
L 270.436364 205.104787 
L 273.818182 206.344134 
L 277.2 207.583481 
L 280.581818 208.822827 
L 283.963636 210.062174 
L 287.345455 211.30152 
L 290.727273 212.540867 
L 294.109091 213.780213 
L 297.490909 215.01956 
L 300.872727 216.258907 
L 304.254545 217.498253 
L 307.636364 218.7376 
L 311.018182 219.976946 
L 314.4 221.216293 
L 317.781818 222.455639 
L 321.163636 223.694986 
L 324.545455 224.934333 
L 327.927273 226.173679 
L 331.309091 227.413026 
L 334.690909 228.652372 
L 338.072727 229.891719 
L 341.454545 231.131066 
L 344.836364 232.370412 
L 348.218182 233.609759 
L 351.6 234.849105 
L 354.981818 236.088452 
L 358.363636 237.327798 
L 361.745455 238.567145 
L 365.127273 239.806492 
L 368.509091 241.045838 
L 371.890909 242.285185 
L 375.272727 243.524531 
L 378.654545 244.763878 
L 382.036364 246.003224 
L 385.418182 247.242571 
L 388.8 248.481918 
" style="fill:none;stroke:#4c72b0;stroke-linecap:round;stroke-width:2.625;"/>
   </g>
   <g id="patch_3">
    <path d="M 54 252 
L 54 34.56 
" style="fill:none;stroke:#cccccc;stroke-linecap:square;stroke-linejoin:miter;"/>
   </g>
   <g id="patch_4">
    <path d="M 388.8 252 
L 388.8 34.56 
" style="fill:none;stroke:#cccccc;stroke-linecap:square;stroke-linejoin:miter;"/>
   </g>
   <g id="patch_5">
    <path d="M 54 252 
L 388.8 252 
" style="fill:none;stroke:#cccccc;stroke-linecap:square;stroke-linejoin:miter;"/>
   </g>
   <g id="patch_6">
    <path d="M 54 34.56 
L 388.8 34.56 
" style="fill:none;stroke:#cccccc;stroke-linecap:square;stroke-linejoin:miter;"/>
   </g>
  </g>
 </g>
 <defs>
  <clipPath id="pe090548ad0">
   <rect height="217.44" width="334.8" x="54" y="34.56"/>
  </clipPath>
 </defs>
</svg>
