<?xml version="1.0" encoding="utf-8" standalone="no"?>
<!DOCTYPE svg PUBLIC "-//W3C//DTD SVG 1.1//EN"
  "http://www.w3.org/Graphics/SVG/1.1/DTD/svg11.dtd">
<!-- Created with matplotlib (http://matplotlib.org/) -->
<svg height="288pt" version="1.1" viewBox="0 0 432 288" width="432pt" xmlns="http://www.w3.org/2000/svg" xmlns:xlink="http://www.w3.org/1999/xlink">
 <defs>
  <style type="text/css">
*{stroke-linecap:butt;stroke-linejoin:round;}
  </style>
 </defs>
 <g id="figure_1">
  <g id="patch_1">
   <path d="M 0 288 
L 432 288 
L 432 0 
L 0 0 
z
" style="fill:#ffffff;"/>
  </g>
  <g id="axes_1">
   <g id="patch_2">
    <path d="M 54 252 
L 388.8 252 
L 388.8 34.56 
L 54 34.56 
z
" style="fill:#ffffff;"/>
   </g>
   <g id="matplotlib.axis_1">
    <g id="xtick_1">
     <g id="line2d_1">
      <path clip-path="url(#p5b899b2ca3)" d="M 69.434252 252 
L 69.434252 34.56 
" style="fill:none;stroke:#cccccc;stroke-linecap:round;"/>
     </g>
     <g id="line2d_2"/>
     <g id="text_1">
      <!-- 10 -->
      <defs>
       <path d="M 37.25 0 
L 28.46875 0 
L 28.46875 56 
Q 25.296875 52.984375 20.140625 49.953125 
Q 14.984375 46.921875 10.890625 45.40625 
L 10.890625 53.90625 
Q 18.265625 57.375 23.78125 62.296875 
Q 29.296875 67.234375 31.59375 71.875 
L 37.25 71.875 
z
" id="ArialMT-31"/>
       <path d="M 4.15625 35.296875 
Q 4.15625 48 6.765625 55.734375 
Q 9.375 63.484375 14.515625 67.671875 
Q 19.671875 71.875 27.484375 71.875 
Q 33.25 71.875 37.59375 69.546875 
Q 41.9375 67.234375 44.765625 62.859375 
Q 47.609375 58.5 49.21875 52.21875 
Q 50.828125 45.953125 50.828125 35.296875 
Q 50.828125 22.703125 48.234375 14.96875 
Q 45.65625 7.234375 40.5 3 
Q 35.359375 -1.21875 27.484375 -1.21875 
Q 17.140625 -1.21875 11.234375 6.203125 
Q 4.15625 15.140625 4.15625 35.296875 
z
M 13.1875 35.296875 
Q 13.1875 17.671875 17.3125 11.828125 
Q 21.4375 6 27.484375 6 
Q 33.546875 6 37.671875 11.859375 
Q 41.796875 17.71875 41.796875 35.296875 
Q 41.796875 52.984375 37.671875 58.78125 
Q 33.546875 64.59375 27.390625 64.59375 
Q 21.34375 64.59375 17.71875 59.46875 
Q 13.1875 52.9375 13.1875 35.296875 
z
" id="ArialMT-30"/>
      </defs>
      <g style="fill:#262626;" transform="translate(63.873314 266.157812)scale(0.1 -0.1)">
       <use xlink:href="#ArialMT-31"/>
       <use x="55.615234" xlink:href="#ArialMT-30"/>
      </g>
     </g>
    </g>
    <g id="xtick_2">
     <g id="line2d_3">
      <path clip-path="url(#p5b899b2ca3)" d="M 107.425689 252 
L 107.425689 34.56 
" style="fill:none;stroke:#cccccc;stroke-linecap:round;"/>
     </g>
     <g id="line2d_4"/>
     <g id="text_2">
      <!-- 15 -->
      <defs>
       <path d="M 4.15625 18.75 
L 13.375 19.53125 
Q 14.40625 12.796875 18.140625 9.390625 
Q 21.875 6 27.15625 6 
Q 33.5 6 37.890625 10.78125 
Q 42.28125 15.578125 42.28125 23.484375 
Q 42.28125 31 38.0625 35.34375 
Q 33.84375 39.703125 27 39.703125 
Q 22.75 39.703125 19.328125 37.765625 
Q 15.921875 35.84375 13.96875 32.765625 
L 5.71875 33.84375 
L 12.640625 70.609375 
L 48.25 70.609375 
L 48.25 62.203125 
L 19.671875 62.203125 
L 15.828125 42.96875 
Q 22.265625 47.46875 29.34375 47.46875 
Q 38.71875 47.46875 45.15625 40.96875 
Q 51.609375 34.46875 51.609375 24.265625 
Q 51.609375 14.546875 45.953125 7.46875 
Q 39.0625 -1.21875 27.15625 -1.21875 
Q 17.390625 -1.21875 11.203125 4.25 
Q 5.03125 9.71875 4.15625 18.75 
z
" id="ArialMT-35"/>
      </defs>
      <g style="fill:#262626;" transform="translate(101.864751 266.157812)scale(0.1 -0.1)">
       <use xlink:href="#ArialMT-31"/>
       <use x="55.615234" xlink:href="#ArialMT-35"/>
      </g>
     </g>
    </g>
    <g id="xtick_3">
     <g id="line2d_5">
      <path clip-path="url(#p5b899b2ca3)" d="M 145.417126 252 
L 145.417126 34.56 
" style="fill:none;stroke:#cccccc;stroke-linecap:round;"/>
     </g>
     <g id="line2d_6"/>
     <g id="text_3">
      <!-- 20 -->
      <defs>
       <path d="M 50.34375 8.453125 
L 50.34375 0 
L 3.03125 0 
Q 2.9375 3.171875 4.046875 6.109375 
Q 5.859375 10.9375 9.828125 15.625 
Q 13.8125 20.3125 21.34375 26.46875 
Q 33.015625 36.03125 37.109375 41.625 
Q 41.21875 47.21875 41.21875 52.203125 
Q 41.21875 57.421875 37.46875 61 
Q 33.734375 64.59375 27.734375 64.59375 
Q 21.390625 64.59375 17.578125 60.78125 
Q 13.765625 56.984375 13.71875 50.25 
L 4.6875 51.171875 
Q 5.609375 61.28125 11.65625 66.578125 
Q 17.71875 71.875 27.9375 71.875 
Q 38.234375 71.875 44.234375 66.15625 
Q 50.25 60.453125 50.25 52 
Q 50.25 47.703125 48.484375 43.546875 
Q 46.734375 39.40625 42.65625 34.8125 
Q 38.578125 30.21875 29.109375 22.21875 
Q 21.1875 15.578125 18.9375 13.203125 
Q 16.703125 10.84375 15.234375 8.453125 
z
" id="ArialMT-32"/>
      </defs>
      <g style="fill:#262626;" transform="translate(139.856188 266.157812)scale(0.1 -0.1)">
       <use xlink:href="#ArialMT-32"/>
       <use x="55.615234" xlink:href="#ArialMT-30"/>
      </g>
     </g>
    </g>
    <g id="xtick_4">
     <g id="line2d_7">
      <path clip-path="url(#p5b899b2ca3)" d="M 183.408563 252 
L 183.408563 34.56 
" style="fill:none;stroke:#cccccc;stroke-linecap:round;"/>
     </g>
     <g id="line2d_8"/>
     <g id="text_4">
      <!-- 25 -->
      <g style="fill:#262626;" transform="translate(177.847625 266.157812)scale(0.1 -0.1)">
       <use xlink:href="#ArialMT-32"/>
       <use x="55.615234" xlink:href="#ArialMT-35"/>
      </g>
     </g>
    </g>
    <g id="xtick_5">
     <g id="line2d_9">
      <path clip-path="url(#p5b899b2ca3)" d="M 221.4 252 
L 221.4 34.56 
" style="fill:none;stroke:#cccccc;stroke-linecap:round;"/>
     </g>
     <g id="line2d_10"/>
     <g id="text_5">
      <!-- 30 -->
      <defs>
       <path d="M 4.203125 18.890625 
L 12.984375 20.0625 
Q 14.5 12.59375 18.140625 9.296875 
Q 21.78125 6 27 6 
Q 33.203125 6 37.46875 10.296875 
Q 41.75 14.59375 41.75 20.953125 
Q 41.75 27 37.796875 30.921875 
Q 33.84375 34.859375 27.734375 34.859375 
Q 25.25 34.859375 21.53125 33.890625 
L 22.515625 41.609375 
Q 23.390625 41.5 23.921875 41.5 
Q 29.546875 41.5 34.03125 44.421875 
Q 38.53125 47.359375 38.53125 53.46875 
Q 38.53125 58.296875 35.25 61.46875 
Q 31.984375 64.65625 26.8125 64.65625 
Q 21.6875 64.65625 18.265625 61.421875 
Q 14.84375 58.203125 13.875 51.765625 
L 5.078125 53.328125 
Q 6.6875 62.15625 12.390625 67.015625 
Q 18.109375 71.875 26.609375 71.875 
Q 32.46875 71.875 37.390625 69.359375 
Q 42.328125 66.84375 44.9375 62.5 
Q 47.5625 58.15625 47.5625 53.265625 
Q 47.5625 48.640625 45.0625 44.828125 
Q 42.578125 41.015625 37.703125 38.765625 
Q 44.046875 37.3125 47.5625 32.6875 
Q 51.078125 28.078125 51.078125 21.140625 
Q 51.078125 11.765625 44.234375 5.25 
Q 37.40625 -1.265625 26.953125 -1.265625 
Q 17.53125 -1.265625 11.296875 4.34375 
Q 5.078125 9.96875 4.203125 18.890625 
z
" id="ArialMT-33"/>
      </defs>
      <g style="fill:#262626;" transform="translate(215.839062 266.157812)scale(0.1 -0.1)">
       <use xlink:href="#ArialMT-33"/>
       <use x="55.615234" xlink:href="#ArialMT-30"/>
      </g>
     </g>
    </g>
    <g id="xtick_6">
     <g id="line2d_11">
      <path clip-path="url(#p5b899b2ca3)" d="M 259.391437 252 
L 259.391437 34.56 
" style="fill:none;stroke:#cccccc;stroke-linecap:round;"/>
     </g>
     <g id="line2d_12"/>
     <g id="text_6">
      <!-- 35 -->
      <g style="fill:#262626;" transform="translate(253.8305 266.157812)scale(0.1 -0.1)">
       <use xlink:href="#ArialMT-33"/>
       <use x="55.615234" xlink:href="#ArialMT-35"/>
      </g>
     </g>
    </g>
    <g id="xtick_7">
     <g id="line2d_13">
      <path clip-path="url(#p5b899b2ca3)" d="M 297.382874 252 
L 297.382874 34.56 
" style="fill:none;stroke:#cccccc;stroke-linecap:round;"/>
     </g>
     <g id="line2d_14"/>
     <g id="text_7">
      <!-- 40 -->
      <defs>
       <path d="M 32.328125 0 
L 32.328125 17.140625 
L 1.265625 17.140625 
L 1.265625 25.203125 
L 33.9375 71.578125 
L 41.109375 71.578125 
L 41.109375 25.203125 
L 50.78125 25.203125 
L 50.78125 17.140625 
L 41.109375 17.140625 
L 41.109375 0 
z
M 32.328125 25.203125 
L 32.328125 57.46875 
L 9.90625 25.203125 
z
" id="ArialMT-34"/>
      </defs>
      <g style="fill:#262626;" transform="translate(291.821937 266.157812)scale(0.1 -0.1)">
       <use xlink:href="#ArialMT-34"/>
       <use x="55.615234" xlink:href="#ArialMT-30"/>
      </g>
     </g>
    </g>
    <g id="xtick_8">
     <g id="line2d_15">
      <path clip-path="url(#p5b899b2ca3)" d="M 335.374311 252 
L 335.374311 34.56 
" style="fill:none;stroke:#cccccc;stroke-linecap:round;"/>
     </g>
     <g id="line2d_16"/>
     <g id="text_8">
      <!-- 45 -->
      <g style="fill:#262626;" transform="translate(329.813374 266.157812)scale(0.1 -0.1)">
       <use xlink:href="#ArialMT-34"/>
       <use x="55.615234" xlink:href="#ArialMT-35"/>
      </g>
     </g>
    </g>
    <g id="xtick_9">
     <g id="line2d_17">
      <path clip-path="url(#p5b899b2ca3)" d="M 373.365748 252 
L 373.365748 34.56 
" style="fill:none;stroke:#cccccc;stroke-linecap:round;"/>
     </g>
     <g id="line2d_18"/>
     <g id="text_9">
      <!-- 50 -->
      <g style="fill:#262626;" transform="translate(367.804811 266.157812)scale(0.1 -0.1)">
       <use xlink:href="#ArialMT-35"/>
       <use x="55.615234" xlink:href="#ArialMT-30"/>
      </g>
     </g>
    </g>
    <g id="text_10">
     <!-- age -->
     <defs>
      <path d="M 40.4375 6.390625 
Q 35.546875 2.25 31.03125 0.53125 
Q 26.515625 -1.171875 21.34375 -1.171875 
Q 12.796875 -1.171875 8.203125 3 
Q 3.609375 7.171875 3.609375 13.671875 
Q 3.609375 17.484375 5.34375 20.625 
Q 7.078125 23.78125 9.890625 25.6875 
Q 12.703125 27.59375 16.21875 28.5625 
Q 18.796875 29.25 24.03125 29.890625 
Q 34.671875 31.15625 39.703125 32.90625 
Q 39.75 34.71875 39.75 35.203125 
Q 39.75 40.578125 37.25 42.78125 
Q 33.890625 45.75 27.25 45.75 
Q 21.046875 45.75 18.09375 43.578125 
Q 15.140625 41.40625 13.71875 35.890625 
L 5.125 37.0625 
Q 6.296875 42.578125 8.984375 45.96875 
Q 11.671875 49.359375 16.75 51.1875 
Q 21.828125 53.03125 28.515625 53.03125 
Q 35.15625 53.03125 39.296875 51.46875 
Q 43.453125 49.90625 45.40625 47.53125 
Q 47.359375 45.171875 48.140625 41.546875 
Q 48.578125 39.3125 48.578125 33.453125 
L 48.578125 21.734375 
Q 48.578125 9.46875 49.140625 6.21875 
Q 49.703125 2.984375 51.375 0 
L 42.1875 0 
Q 40.828125 2.734375 40.4375 6.390625 
z
M 39.703125 26.03125 
Q 34.90625 24.078125 25.34375 22.703125 
Q 19.921875 21.921875 17.671875 20.9375 
Q 15.4375 19.96875 14.203125 18.09375 
Q 12.984375 16.21875 12.984375 13.921875 
Q 12.984375 10.40625 15.640625 8.0625 
Q 18.3125 5.71875 23.4375 5.71875 
Q 28.515625 5.71875 32.46875 7.9375 
Q 36.421875 10.15625 38.28125 14.015625 
Q 39.703125 17 39.703125 22.796875 
z
" id="ArialMT-61"/>
      <path d="M 4.984375 -4.296875 
L 13.53125 -5.5625 
Q 14.0625 -9.515625 16.5 -11.328125 
Q 19.78125 -13.765625 25.4375 -13.765625 
Q 31.546875 -13.765625 34.859375 -11.328125 
Q 38.1875 -8.890625 39.359375 -4.5 
Q 40.046875 -1.8125 39.984375 6.78125 
Q 34.234375 0 25.640625 0 
Q 14.9375 0 9.078125 7.71875 
Q 3.21875 15.4375 3.21875 26.21875 
Q 3.21875 33.640625 5.90625 39.90625 
Q 8.59375 46.1875 13.6875 49.609375 
Q 18.796875 53.03125 25.6875 53.03125 
Q 34.859375 53.03125 40.828125 45.609375 
L 40.828125 51.859375 
L 48.921875 51.859375 
L 48.921875 7.03125 
Q 48.921875 -5.078125 46.453125 -10.125 
Q 44 -15.1875 38.640625 -18.109375 
Q 33.296875 -21.046875 25.484375 -21.046875 
Q 16.21875 -21.046875 10.5 -16.875 
Q 4.78125 -12.703125 4.984375 -4.296875 
z
M 12.25 26.859375 
Q 12.25 16.65625 16.296875 11.96875 
Q 20.359375 7.28125 26.46875 7.28125 
Q 32.515625 7.28125 36.609375 11.9375 
Q 40.71875 16.609375 40.71875 26.5625 
Q 40.71875 36.078125 36.5 40.90625 
Q 32.28125 45.75 26.3125 45.75 
Q 20.453125 45.75 16.34375 40.984375 
Q 12.25 36.234375 12.25 26.859375 
z
" id="ArialMT-67"/>
      <path d="M 42.09375 16.703125 
L 51.171875 15.578125 
Q 49.03125 7.625 43.21875 3.21875 
Q 37.40625 -1.171875 28.375 -1.171875 
Q 17 -1.171875 10.328125 5.828125 
Q 3.65625 12.84375 3.65625 25.484375 
Q 3.65625 38.578125 10.390625 45.796875 
Q 17.140625 53.03125 27.875 53.03125 
Q 38.28125 53.03125 44.875 45.953125 
Q 51.46875 38.875 51.46875 26.03125 
Q 51.46875 25.25 51.421875 23.6875 
L 12.75 23.6875 
Q 13.234375 15.140625 17.578125 10.59375 
Q 21.921875 6.0625 28.421875 6.0625 
Q 33.25 6.0625 36.671875 8.59375 
Q 40.09375 11.140625 42.09375 16.703125 
z
M 13.234375 30.90625 
L 42.1875 30.90625 
Q 41.609375 37.453125 38.875 40.71875 
Q 34.671875 45.796875 27.984375 45.796875 
Q 21.921875 45.796875 17.796875 41.75 
Q 13.671875 37.703125 13.234375 30.90625 
z
" id="ArialMT-65"/>
     </defs>
     <g style="fill:#262626;" transform="translate(212.224453 279.89)scale(0.11 -0.11)">
      <use xlink:href="#ArialMT-61"/>
      <use x="55.615234" xlink:href="#ArialMT-67"/>
      <use x="111.230469" xlink:href="#ArialMT-65"/>
     </g>
    </g>
   </g>
   <g id="matplotlib.axis_2">
    <g id="ytick_1">
     <g id="line2d_19">
      <path clip-path="url(#p5b899b2ca3)" d="M 54 233.88 
L 388.8 233.88 
" style="fill:none;stroke:#cccccc;stroke-linecap:round;"/>
     </g>
     <g id="line2d_20"/>
     <g id="text_11">
      <!-- 0.0 -->
      <defs>
       <path d="M 9.078125 0 
L 9.078125 10.015625 
L 19.09375 10.015625 
L 19.09375 0 
z
" id="ArialMT-2e"/>
      </defs>
      <g style="fill:#262626;" transform="translate(33.1 237.458906)scale(0.1 -0.1)">
       <use xlink:href="#ArialMT-30"/>
       <use x="55.615234" xlink:href="#ArialMT-2e"/>
       <use x="83.398438" xlink:href="#ArialMT-30"/>
      </g>
     </g>
    </g>
    <g id="ytick_2">
     <g id="line2d_21">
      <path clip-path="url(#p5b899b2ca3)" d="M 54 197.64 
L 388.8 197.64 
" style="fill:none;stroke:#cccccc;stroke-linecap:round;"/>
     </g>
     <g id="line2d_22"/>
     <g id="text_12">
      <!-- 0.2 -->
      <g style="fill:#262626;" transform="translate(33.1 201.218906)scale(0.1 -0.1)">
       <use xlink:href="#ArialMT-30"/>
       <use x="55.615234" xlink:href="#ArialMT-2e"/>
       <use x="83.398438" xlink:href="#ArialMT-32"/>
      </g>
     </g>
    </g>
    <g id="ytick_3">
     <g id="line2d_23">
      <path clip-path="url(#p5b899b2ca3)" d="M 54 161.4 
L 388.8 161.4 
" style="fill:none;stroke:#cccccc;stroke-linecap:round;"/>
     </g>
     <g id="line2d_24"/>
     <g id="text_13">
      <!-- 0.4 -->
      <g style="fill:#262626;" transform="translate(33.1 164.978906)scale(0.1 -0.1)">
       <use xlink:href="#ArialMT-30"/>
       <use x="55.615234" xlink:href="#ArialMT-2e"/>
       <use x="83.398438" xlink:href="#ArialMT-34"/>
      </g>
     </g>
    </g>
    <g id="ytick_4">
     <g id="line2d_25">
      <path clip-path="url(#p5b899b2ca3)" d="M 54 125.16 
L 388.8 125.16 
" style="fill:none;stroke:#cccccc;stroke-linecap:round;"/>
     </g>
     <g id="line2d_26"/>
     <g id="text_14">
      <!-- 0.6 -->
      <defs>
       <path d="M 49.75 54.046875 
L 41.015625 53.375 
Q 39.84375 58.546875 37.703125 60.890625 
Q 34.125 64.65625 28.90625 64.65625 
Q 24.703125 64.65625 21.53125 62.3125 
Q 17.390625 59.28125 14.984375 53.46875 
Q 12.59375 47.65625 12.5 36.921875 
Q 15.671875 41.75 20.265625 44.09375 
Q 24.859375 46.4375 29.890625 46.4375 
Q 38.671875 46.4375 44.84375 39.96875 
Q 51.03125 33.5 51.03125 23.25 
Q 51.03125 16.5 48.125 10.71875 
Q 45.21875 4.9375 40.140625 1.859375 
Q 35.0625 -1.21875 28.609375 -1.21875 
Q 17.625 -1.21875 10.6875 6.859375 
Q 3.765625 14.9375 3.765625 33.5 
Q 3.765625 54.25 11.421875 63.671875 
Q 18.109375 71.875 29.4375 71.875 
Q 37.890625 71.875 43.28125 67.140625 
Q 48.6875 62.40625 49.75 54.046875 
z
M 13.875 23.1875 
Q 13.875 18.65625 15.796875 14.5 
Q 17.71875 10.359375 21.1875 8.171875 
Q 24.65625 6 28.46875 6 
Q 34.03125 6 38.03125 10.484375 
Q 42.046875 14.984375 42.046875 22.703125 
Q 42.046875 30.125 38.078125 34.390625 
Q 34.125 38.671875 28.125 38.671875 
Q 22.171875 38.671875 18.015625 34.390625 
Q 13.875 30.125 13.875 23.1875 
z
" id="ArialMT-36"/>
      </defs>
      <g style="fill:#262626;" transform="translate(33.1 128.738906)scale(0.1 -0.1)">
       <use xlink:href="#ArialMT-30"/>
       <use x="55.615234" xlink:href="#ArialMT-2e"/>
       <use x="83.398438" xlink:href="#ArialMT-36"/>
      </g>
     </g>
    </g>
    <g id="ytick_5">
     <g id="line2d_27">
      <path clip-path="url(#p5b899b2ca3)" d="M 54 88.92 
L 388.8 88.92 
" style="fill:none;stroke:#cccccc;stroke-linecap:round;"/>
     </g>
     <g id="line2d_28"/>
     <g id="text_15">
      <!-- 0.8 -->
      <defs>
       <path d="M 17.671875 38.8125 
Q 12.203125 40.828125 9.5625 44.53125 
Q 6.9375 48.25 6.9375 53.421875 
Q 6.9375 61.234375 12.546875 66.546875 
Q 18.171875 71.875 27.484375 71.875 
Q 36.859375 71.875 42.578125 66.421875 
Q 48.296875 60.984375 48.296875 53.171875 
Q 48.296875 48.1875 45.671875 44.5 
Q 43.0625 40.828125 37.75 38.8125 
Q 44.34375 36.671875 47.78125 31.875 
Q 51.21875 27.09375 51.21875 20.453125 
Q 51.21875 11.28125 44.71875 5.03125 
Q 38.234375 -1.21875 27.640625 -1.21875 
Q 17.046875 -1.21875 10.546875 5.046875 
Q 4.046875 11.328125 4.046875 20.703125 
Q 4.046875 27.6875 7.59375 32.390625 
Q 11.140625 37.109375 17.671875 38.8125 
z
M 15.921875 53.71875 
Q 15.921875 48.640625 19.1875 45.40625 
Q 22.46875 42.1875 27.6875 42.1875 
Q 32.765625 42.1875 36.015625 45.375 
Q 39.265625 48.578125 39.265625 53.21875 
Q 39.265625 58.0625 35.90625 61.359375 
Q 32.5625 64.65625 27.59375 64.65625 
Q 22.5625 64.65625 19.234375 61.421875 
Q 15.921875 58.203125 15.921875 53.71875 
z
M 13.09375 20.65625 
Q 13.09375 16.890625 14.875 13.375 
Q 16.65625 9.859375 20.171875 7.921875 
Q 23.6875 6 27.734375 6 
Q 34.03125 6 38.125 10.046875 
Q 42.234375 14.109375 42.234375 20.359375 
Q 42.234375 26.703125 38.015625 30.859375 
Q 33.796875 35.015625 27.4375 35.015625 
Q 21.234375 35.015625 17.15625 30.90625 
Q 13.09375 26.8125 13.09375 20.65625 
z
" id="ArialMT-38"/>
      </defs>
      <g style="fill:#262626;" transform="translate(33.1 92.498906)scale(0.1 -0.1)">
       <use xlink:href="#ArialMT-30"/>
       <use x="55.615234" xlink:href="#ArialMT-2e"/>
       <use x="83.398438" xlink:href="#ArialMT-38"/>
      </g>
     </g>
    </g>
    <g id="ytick_6">
     <g id="line2d_29">
      <path clip-path="url(#p5b899b2ca3)" d="M 54 52.68 
L 388.8 52.68 
" style="fill:none;stroke:#cccccc;stroke-linecap:round;"/>
     </g>
     <g id="line2d_30"/>
     <g id="text_16">
      <!-- 1.0 -->
      <g style="fill:#262626;" transform="translate(33.1 56.258906)scale(0.1 -0.1)">
       <use xlink:href="#ArialMT-31"/>
       <use x="55.615234" xlink:href="#ArialMT-2e"/>
       <use x="83.398438" xlink:href="#ArialMT-30"/>
      </g>
     </g>
    </g>
    <g id="text_17">
     <!-- liked movie -->
     <defs>
      <path d="M 6.390625 0 
L 6.390625 71.578125 
L 15.1875 71.578125 
L 15.1875 0 
z
" id="ArialMT-6c"/>
      <path d="M 6.640625 61.46875 
L 6.640625 71.578125 
L 15.4375 71.578125 
L 15.4375 61.46875 
z
M 6.640625 0 
L 6.640625 51.859375 
L 15.4375 51.859375 
L 15.4375 0 
z
" id="ArialMT-69"/>
      <path d="M 6.640625 0 
L 6.640625 71.578125 
L 15.4375 71.578125 
L 15.4375 30.765625 
L 36.234375 51.859375 
L 47.609375 51.859375 
L 27.78125 32.625 
L 49.609375 0 
L 38.765625 0 
L 21.625 26.515625 
L 15.4375 20.5625 
L 15.4375 0 
z
" id="ArialMT-6b"/>
      <path d="M 40.234375 0 
L 40.234375 6.546875 
Q 35.296875 -1.171875 25.734375 -1.171875 
Q 19.53125 -1.171875 14.328125 2.25 
Q 9.125 5.671875 6.265625 11.796875 
Q 3.421875 17.921875 3.421875 25.875 
Q 3.421875 33.640625 6 39.96875 
Q 8.59375 46.296875 13.765625 49.65625 
Q 18.953125 53.03125 25.34375 53.03125 
Q 30.03125 53.03125 33.6875 51.046875 
Q 37.359375 49.078125 39.65625 45.90625 
L 39.65625 71.578125 
L 48.390625 71.578125 
L 48.390625 0 
z
M 12.453125 25.875 
Q 12.453125 15.921875 16.640625 10.984375 
Q 20.84375 6.0625 26.5625 6.0625 
Q 32.328125 6.0625 36.34375 10.765625 
Q 40.375 15.484375 40.375 25.140625 
Q 40.375 35.796875 36.265625 40.765625 
Q 32.171875 45.75 26.171875 45.75 
Q 20.3125 45.75 16.375 40.96875 
Q 12.453125 36.1875 12.453125 25.875 
z
" id="ArialMT-64"/>
      <path id="ArialMT-20"/>
      <path d="M 6.59375 0 
L 6.59375 51.859375 
L 14.453125 51.859375 
L 14.453125 44.578125 
Q 16.890625 48.390625 20.9375 50.703125 
Q 25 53.03125 30.171875 53.03125 
Q 35.9375 53.03125 39.625 50.640625 
Q 43.3125 48.25 44.828125 43.953125 
Q 50.984375 53.03125 60.84375 53.03125 
Q 68.5625 53.03125 72.703125 48.75 
Q 76.859375 44.484375 76.859375 35.59375 
L 76.859375 0 
L 68.109375 0 
L 68.109375 32.671875 
Q 68.109375 37.9375 67.25 40.25 
Q 66.40625 42.578125 64.15625 43.984375 
Q 61.921875 45.40625 58.890625 45.40625 
Q 53.421875 45.40625 49.796875 41.765625 
Q 46.1875 38.140625 46.1875 30.125 
L 46.1875 0 
L 37.40625 0 
L 37.40625 33.6875 
Q 37.40625 39.546875 35.25 42.46875 
Q 33.109375 45.40625 28.21875 45.40625 
Q 24.515625 45.40625 21.359375 43.453125 
Q 18.21875 41.5 16.796875 37.734375 
Q 15.375 33.984375 15.375 26.90625 
L 15.375 0 
z
" id="ArialMT-6d"/>
      <path d="M 3.328125 25.921875 
Q 3.328125 40.328125 11.328125 47.265625 
Q 18.015625 53.03125 27.640625 53.03125 
Q 38.328125 53.03125 45.109375 46.015625 
Q 51.90625 39.015625 51.90625 26.65625 
Q 51.90625 16.65625 48.90625 10.90625 
Q 45.90625 5.171875 40.15625 2 
Q 34.421875 -1.171875 27.640625 -1.171875 
Q 16.75 -1.171875 10.03125 5.8125 
Q 3.328125 12.796875 3.328125 25.921875 
z
M 12.359375 25.921875 
Q 12.359375 15.96875 16.703125 11.015625 
Q 21.046875 6.0625 27.640625 6.0625 
Q 34.1875 6.0625 38.53125 11.03125 
Q 42.875 16.015625 42.875 26.21875 
Q 42.875 35.84375 38.5 40.796875 
Q 34.125 45.75 27.640625 45.75 
Q 21.046875 45.75 16.703125 40.8125 
Q 12.359375 35.890625 12.359375 25.921875 
z
" id="ArialMT-6f"/>
      <path d="M 21 0 
L 1.265625 51.859375 
L 10.546875 51.859375 
L 21.6875 20.796875 
Q 23.484375 15.765625 25 10.359375 
Q 26.171875 14.453125 28.265625 20.21875 
L 39.796875 51.859375 
L 48.828125 51.859375 
L 29.203125 0 
z
" id="ArialMT-76"/>
     </defs>
     <g style="fill:#262626;" transform="translate(26.91375 170.789453)rotate(-90)scale(0.11 -0.11)">
      <use xlink:href="#ArialMT-6c"/>
      <use x="22.216797" xlink:href="#ArialMT-69"/>
      <use x="44.433594" xlink:href="#ArialMT-6b"/>
      <use x="94.433594" xlink:href="#ArialMT-65"/>
      <use x="150.048828" xlink:href="#ArialMT-64"/>
      <use x="205.664062" xlink:href="#ArialMT-20"/>
      <use x="233.447266" xlink:href="#ArialMT-6d"/>
      <use x="316.748047" xlink:href="#ArialMT-6f"/>
      <use x="372.363281" xlink:href="#ArialMT-76"/>
      <use x="422.363281" xlink:href="#ArialMT-69"/>
      <use x="444.580078" xlink:href="#ArialMT-65"/>
     </g>
    </g>
   </g>
   <g id="PathCollection_1">
    <defs>
     <path d="M 0 3.5 
C 0.928211 3.5 1.81853 3.131218 2.474874 2.474874 
C 3.131218 1.81853 3.5 0.928211 3.5 0 
C 3.5 -0.928211 3.131218 -1.81853 2.474874 -2.474874 
C 1.81853 -3.131218 0.928211 -3.5 0 -3.5 
C -0.928211 -3.5 -1.81853 -3.131218 -2.474874 -2.474874 
C -3.131218 -1.81853 -3.5 -0.928211 -3.5 0 
C -3.5 0.928211 -3.131218 1.81853 -2.474874 2.474874 
C -1.81853 3.131218 -0.928211 3.5 0 3.5 
z
" id="md4b7685d7b"/>
    </defs>
    <g clip-path="url(#p5b899b2ca3)">
     <use style="fill:#4c72b0;fill-opacity:0.8;" x="69.434252" xlink:href="#md4b7685d7b" y="53.553013"/>
     <use style="fill:#4c72b0;fill-opacity:0.8;" x="69.434252" xlink:href="#md4b7685d7b" y="51.44643"/>
     <use style="fill:#4c72b0;fill-opacity:0.8;" x="69.434252" xlink:href="#md4b7685d7b" y="55.783264"/>
     <use style="fill:#4c72b0;fill-opacity:0.8;" x="69.434252" xlink:href="#md4b7685d7b" y="231.586307"/>
     <use style="fill:#4c72b0;fill-opacity:0.8;" x="69.434252" xlink:href="#md4b7685d7b" y="232.365608"/>
     <use style="fill:#4c72b0;fill-opacity:0.8;" x="69.434252" xlink:href="#md4b7685d7b" y="233.067548"/>
     <use style="fill:#4c72b0;fill-opacity:0.8;" x="107.425689" xlink:href="#md4b7685d7b" y="50.776275"/>
     <use style="fill:#4c72b0;fill-opacity:0.8;" x="107.425689" xlink:href="#md4b7685d7b" y="50.063554"/>
     <use style="fill:#4c72b0;fill-opacity:0.8;" x="107.425689" xlink:href="#md4b7685d7b" y="53.496448"/>
     <use style="fill:#4c72b0;fill-opacity:0.8;" x="107.425689" xlink:href="#md4b7685d7b" y="51.648501"/>
     <use style="fill:#4c72b0;fill-opacity:0.8;" x="107.425689" xlink:href="#md4b7685d7b" y="236.649767"/>
     <use style="fill:#4c72b0;fill-opacity:0.8;" x="107.425689" xlink:href="#md4b7685d7b" y="233.245622"/>
     <use style="fill:#4c72b0;fill-opacity:0.8;" x="107.425689" xlink:href="#md4b7685d7b" y="237.027632"/>
     <use style="fill:#4c72b0;fill-opacity:0.8;" x="107.425689" xlink:href="#md4b7685d7b" y="231.8474"/>
     <use style="fill:#4c72b0;fill-opacity:0.8;" x="115.023976" xlink:href="#md4b7685d7b" y="51.325161"/>
     <use style="fill:#4c72b0;fill-opacity:0.8;" x="115.023976" xlink:href="#md4b7685d7b" y="55.806336"/>
     <use style="fill:#4c72b0;fill-opacity:0.8;" x="115.023976" xlink:href="#md4b7685d7b" y="52.853572"/>
     <use style="fill:#4c72b0;fill-opacity:0.8;" x="115.023976" xlink:href="#md4b7685d7b" y="232.598909"/>
     <use style="fill:#4c72b0;fill-opacity:0.8;" x="115.023976" xlink:href="#md4b7685d7b" y="236.131593"/>
     <use style="fill:#4c72b0;fill-opacity:0.8;" x="115.023976" xlink:href="#md4b7685d7b" y="236.493985"/>
     <use style="fill:#4c72b0;fill-opacity:0.8;" x="130.220551" xlink:href="#md4b7685d7b" y="49.458865"/>
     <use style="fill:#4c72b0;fill-opacity:0.8;" x="130.220551" xlink:href="#md4b7685d7b" y="52.806757"/>
     <use style="fill:#4c72b0;fill-opacity:0.8;" x="130.220551" xlink:href="#md4b7685d7b" y="234.057798"/>
     <use style="fill:#4c72b0;fill-opacity:0.8;" x="130.220551" xlink:href="#md4b7685d7b" y="231.538174"/>
     <use style="fill:#4c72b0;fill-opacity:0.8;" x="130.220551" xlink:href="#md4b7685d7b" y="235.575758"/>
     <use style="fill:#4c72b0;fill-opacity:0.8;" x="130.220551" xlink:href="#md4b7685d7b" y="50.581217"/>
     <use style="fill:#4c72b0;fill-opacity:0.8;" x="145.417126" xlink:href="#md4b7685d7b" y="55.903879"/>
     <use style="fill:#4c72b0;fill-opacity:0.8;" x="145.417126" xlink:href="#md4b7685d7b" y="236.568552"/>
     <use style="fill:#4c72b0;fill-opacity:0.8;" x="145.417126" xlink:href="#md4b7685d7b" y="237.016271"/>
     <use style="fill:#4c72b0;fill-opacity:0.8;" x="145.417126" xlink:href="#md4b7685d7b" y="237.0414"/>
     <use style="fill:#4c72b0;fill-opacity:0.8;" x="145.417126" xlink:href="#md4b7685d7b" y="54.284392"/>
     <use style="fill:#4c72b0;fill-opacity:0.8;" x="183.408563" xlink:href="#md4b7685d7b" y="54.560563"/>
     <use style="fill:#4c72b0;fill-opacity:0.8;" x="183.408563" xlink:href="#md4b7685d7b" y="236.12816"/>
     <use style="fill:#4c72b0;fill-opacity:0.8;" x="183.408563" xlink:href="#md4b7685d7b" y="230.604431"/>
     <use style="fill:#4c72b0;fill-opacity:0.8;" x="183.408563" xlink:href="#md4b7685d7b" y="231.495766"/>
     <use style="fill:#4c72b0;fill-opacity:0.8;" x="183.408563" xlink:href="#md4b7685d7b" y="234.229"/>
     <use style="fill:#4c72b0;fill-opacity:0.8;" x="183.408563" xlink:href="#md4b7685d7b" y="51.491173"/>
     <use style="fill:#4c72b0;fill-opacity:0.8;" x="221.4" xlink:href="#md4b7685d7b" y="50.578444"/>
     <use style="fill:#4c72b0;fill-opacity:0.8;" x="221.4" xlink:href="#md4b7685d7b" y="234.657817"/>
     <use style="fill:#4c72b0;fill-opacity:0.8;" x="221.4" xlink:href="#md4b7685d7b" y="237.262406"/>
     <use style="fill:#4c72b0;fill-opacity:0.8;" x="221.4" xlink:href="#md4b7685d7b" y="233.457743"/>
     <use style="fill:#4c72b0;fill-opacity:0.8;" x="221.4" xlink:href="#md4b7685d7b" y="233.405029"/>
     <use style="fill:#4c72b0;fill-opacity:0.8;" x="221.4" xlink:href="#md4b7685d7b" y="50.728707"/>
     <use style="fill:#4c72b0;fill-opacity:0.8;" x="259.391437" xlink:href="#md4b7685d7b" y="232.087843"/>
     <use style="fill:#4c72b0;fill-opacity:0.8;" x="259.391437" xlink:href="#md4b7685d7b" y="235.827156"/>
     <use style="fill:#4c72b0;fill-opacity:0.8;" x="259.391437" xlink:href="#md4b7685d7b" y="236.468306"/>
     <use style="fill:#4c72b0;fill-opacity:0.8;" x="259.391437" xlink:href="#md4b7685d7b" y="231.112493"/>
     <use style="fill:#4c72b0;fill-opacity:0.8;" x="259.391437" xlink:href="#md4b7685d7b" y="236.841952"/>
     <use style="fill:#4c72b0;fill-opacity:0.8;" x="297.382874" xlink:href="#md4b7685d7b" y="50.84508"/>
     <use style="fill:#4c72b0;fill-opacity:0.8;" x="297.382874" xlink:href="#md4b7685d7b" y="232.614593"/>
     <use style="fill:#4c72b0;fill-opacity:0.8;" x="297.382874" xlink:href="#md4b7685d7b" y="235.987744"/>
     <use style="fill:#4c72b0;fill-opacity:0.8;" x="297.382874" xlink:href="#md4b7685d7b" y="237.145447"/>
     <use style="fill:#4c72b0;fill-opacity:0.8;" x="297.382874" xlink:href="#md4b7685d7b" y="232.525579"/>
     <use style="fill:#4c72b0;fill-opacity:0.8;" x="297.382874" xlink:href="#md4b7685d7b" y="230.803561"/>
     <use style="fill:#4c72b0;fill-opacity:0.8;" x="297.382874" xlink:href="#md4b7685d7b" y="234.139885"/>
     <use style="fill:#4c72b0;fill-opacity:0.8;" x="335.374311" xlink:href="#md4b7685d7b" y="234.247439"/>
     <use style="fill:#4c72b0;fill-opacity:0.8;" x="335.374311" xlink:href="#md4b7685d7b" y="230.992474"/>
     <use style="fill:#4c72b0;fill-opacity:0.8;" x="373.365748" xlink:href="#md4b7685d7b" y="232.764927"/>
     <use style="fill:#4c72b0;fill-opacity:0.8;" x="373.365748" xlink:href="#md4b7685d7b" y="232.436994"/>
    </g>
   </g>
   <g id="PolyCollection_1">
    <path clip-path="url(#p5b899b2ca3)" d="M 54 75.840649 
L 54 164.463719 
L 57.381818 165.24298 
L 60.763636 165.934293 
L 64.145455 166.561217 
L 67.527273 167.156928 
L 70.909091 167.763739 
L 74.290909 168.361551 
L 77.672727 169.090072 
L 81.054545 169.953483 
L 84.436364 170.688054 
L 87.818182 171.327929 
L 91.2 171.935166 
L 94.581818 172.951082 
L 97.963636 173.828836 
L 101.345455 174.60126 
L 104.727273 175.37013 
L 108.109091 176.250482 
L 111.490909 177.338664 
L 114.872727 178.815415 
L 118.254545 180.066881 
L 121.636364 180.510393 
L 125.018182 182.086857 
L 128.4 182.949473 
L 131.781818 183.621614 
L 135.163636 184.717214 
L 138.545455 185.972625 
L 141.927273 186.625893 
L 145.309091 188.017759 
L 148.690909 189.71293 
L 152.072727 191.363217 
L 155.454545 192.506133 
L 158.836364 193.66324 
L 162.218182 195.369483 
L 165.6 197.319148 
L 168.981818 198.507365 
L 172.363636 200.079388 
L 175.745455 202.0875 
L 179.127273 203.516356 
L 182.509091 204.895439 
L 185.890909 206.331888 
L 189.272727 207.484604 
L 192.654545 208.438647 
L 196.036364 209.894471 
L 199.418182 211.302821 
L 202.8 212.362472 
L 206.181818 213.36699 
L 209.563636 214.54272 
L 212.945455 215.561261 
L 216.327273 216.759266 
L 219.709091 217.685298 
L 223.090909 218.742012 
L 226.472727 219.657632 
L 229.854545 220.515636 
L 233.236364 221.265236 
L 236.618182 221.990255 
L 240 222.773657 
L 243.381818 223.510363 
L 246.763636 224.20445 
L 250.145455 224.854477 
L 253.527273 225.462924 
L 256.909091 226.032173 
L 260.290909 226.562802 
L 263.672727 227.054595 
L 267.054545 227.514485 
L 270.436364 227.982498 
L 273.818182 228.348975 
L 277.2 228.72808 
L 280.581818 229.081899 
L 283.963636 229.412025 
L 287.345455 229.719963 
L 290.727273 230.007133 
L 294.109091 230.274875 
L 297.490909 230.52445 
L 300.872727 230.757043 
L 304.254545 230.973771 
L 307.636364 231.181349 
L 311.018182 231.379314 
L 314.4 231.562943 
L 317.781818 231.733248 
L 321.163636 231.891173 
L 324.545455 232.037599 
L 327.927273 232.173345 
L 331.309091 232.299177 
L 334.690909 232.415805 
L 338.072727 232.523894 
L 341.454545 232.624057 
L 344.836364 232.717487 
L 348.218182 232.805652 
L 351.6 232.887167 
L 354.981818 232.962528 
L 358.363636 233.032196 
L 361.745455 233.096596 
L 365.127273 233.156103 
L 368.509091 233.211069 
L 371.890909 233.261876 
L 375.272727 233.308836 
L 378.654545 233.352239 
L 382.036364 233.392282 
L 385.418182 233.429276 
L 388.8 233.463469 
L 388.8 201.953852 
L 388.8 201.953852 
L 385.418182 201.572885 
L 382.036364 201.342537 
L 378.654545 201.110865 
L 375.272727 200.648635 
L 371.890909 200.089776 
L 368.509091 199.523698 
L 365.127273 198.952588 
L 361.745455 198.376242 
L 358.363636 197.792705 
L 354.981818 197.386695 
L 351.6 197.009542 
L 348.218182 196.629469 
L 344.836364 196.249569 
L 341.454545 195.86819 
L 338.072727 195.488398 
L 334.690909 195.105833 
L 331.309091 194.720494 
L 327.927273 194.069921 
L 324.545455 193.666564 
L 321.163636 193.380527 
L 317.781818 192.695996 
L 314.4 192.092626 
L 311.018182 191.373535 
L 307.636364 190.646311 
L 304.254545 190.058293 
L 300.872727 189.623382 
L 297.490909 189.189579 
L 294.109091 188.757935 
L 290.727273 188.1023 
L 287.345455 187.814685 
L 283.963636 187.216235 
L 280.581818 186.343908 
L 277.2 185.779365 
L 273.818182 185.332559 
L 270.436364 184.69077 
L 267.054545 183.836108 
L 263.672727 183.064669 
L 260.290909 182.104985 
L 256.909091 181.344742 
L 253.527273 180.290579 
L 250.145455 179.505624 
L 246.763636 178.136439 
L 243.381818 177.170187 
L 240 176.551323 
L 236.618182 175.698976 
L 233.236364 174.667191 
L 229.854545 173.791014 
L 226.472727 172.76416 
L 223.090909 171.673045 
L 219.709091 170.635883 
L 216.327273 169.580079 
L 212.945455 168.527714 
L 209.563636 167.108546 
L 206.181818 165.776367 
L 202.8 164.537877 
L 199.418182 163.306454 
L 196.036364 161.763687 
L 192.654545 160.570338 
L 189.272727 159.073998 
L 185.890909 157.818653 
L 182.509091 156.618612 
L 179.127273 155.133379 
L 175.745455 153.21981 
L 172.363636 151.057528 
L 168.981818 149.363486 
L 165.6 147.770198 
L 162.218182 145.876371 
L 158.836364 143.772915 
L 155.454545 141.600832 
L 152.072727 140.154669 
L 148.690909 138.155859 
L 145.309091 136.10424 
L 141.927273 133.88508 
L 138.545455 131.928267 
L 135.163636 130.008664 
L 131.781818 127.629895 
L 128.4 125.154798 
L 125.018182 122.777103 
L 121.636364 120.713377 
L 118.254545 118.462253 
L 114.872727 115.689949 
L 111.490909 113.203569 
L 108.109091 110.919003 
L 104.727273 108.317197 
L 101.345455 105.44179 
L 97.963636 103.615084 
L 94.581818 100.304665 
L 91.2 98.276951 
L 87.818182 96.311679 
L 84.436364 93.584196 
L 81.054545 91.139005 
L 77.672727 89.480611 
L 74.290909 87.552851 
L 70.909091 85.313109 
L 67.527273 83.485754 
L 64.145455 81.167384 
L 60.763636 79.15609 
L 57.381818 77.333992 
L 54 75.840649 
z
" style="fill:#4c72b0;fill-opacity:0.15;"/>
   </g>
   <g id="line2d_31">
    <path clip-path="url(#p5b899b2ca3)" d="M 54 116.755727 
L 57.381818 118.334618 
L 60.763636 119.930076 
L 64.145455 121.541198 
L 67.527273 123.167043 
L 70.909091 124.806629 
L 74.290909 126.458937 
L 77.672727 128.122916 
L 81.054545 129.797482 
L 84.436364 131.481522 
L 87.818182 133.173896 
L 91.2 134.873442 
L 94.581818 136.578977 
L 97.963636 138.289301 
L 101.345455 140.0032 
L 104.727273 141.719451 
L 108.109091 143.436822 
L 111.490909 145.154081 
L 114.872727 146.869994 
L 118.254545 148.583332 
L 121.636364 150.292871 
L 125.018182 151.997401 
L 128.4 153.695726 
L 131.781818 155.386664 
L 135.163636 157.069058 
L 138.545455 158.741773 
L 141.927273 160.403701 
L 145.309091 162.053764 
L 148.690909 163.690915 
L 152.072727 165.314143 
L 155.454545 166.922474 
L 158.836364 168.514973 
L 162.218182 170.090744 
L 165.6 171.648937 
L 168.981818 173.188742 
L 172.363636 174.709396 
L 175.745455 176.210183 
L 179.127273 177.690433 
L 182.509091 179.149521 
L 185.890909 180.586873 
L 189.272727 182.001961 
L 192.654545 183.394305 
L 196.036364 184.763473 
L 199.418182 186.10908 
L 202.8 187.430786 
L 206.181818 188.728298 
L 209.563636 190.001368 
L 212.945455 191.24979 
L 216.327273 192.473403 
L 219.709091 193.672086 
L 223.090909 194.845758 
L 226.472727 195.994375 
L 229.854545 197.117934 
L 233.236364 198.216463 
L 236.618182 199.290027 
L 240 200.338723 
L 243.381818 201.362675 
L 246.763636 202.362041 
L 250.145455 203.337003 
L 253.527273 204.287767 
L 256.909091 205.214567 
L 260.290909 206.117656 
L 263.672727 206.997308 
L 267.054545 207.853815 
L 270.436364 208.687489 
L 273.818182 209.498653 
L 277.2 210.28765 
L 280.581818 211.05483 
L 283.963636 211.800558 
L 287.345455 212.525207 
L 290.727273 213.229159 
L 294.109091 213.912805 
L 297.490909 214.57654 
L 300.872727 215.220764 
L 304.254545 215.845884 
L 307.636364 216.452307 
L 311.018182 217.040442 
L 314.4 217.610701 
L 317.781818 218.163495 
L 321.163636 218.699235 
L 324.545455 219.218332 
L 327.927273 219.721191 
L 331.309091 220.20822 
L 334.690909 220.67982 
L 338.072727 221.13639 
L 341.454545 221.578325 
L 344.836364 222.006013 
L 348.218182 222.419842 
L 351.6 222.82019 
L 354.981818 223.207431 
L 358.363636 223.581935 
L 361.745455 223.944063 
L 365.127273 224.29417 
L 368.509091 224.632608 
L 371.890909 224.959718 
L 375.272727 225.275835 
L 378.654545 225.58129 
L 382.036364 225.876404 
L 385.418182 226.161491 
L 388.8 226.436861 
" style="fill:none;stroke:#4c72b0;stroke-linecap:round;stroke-width:2.625;"/>
   </g>
   <g id="patch_3">
    <path d="M 54 252 
L 54 34.56 
" style="fill:none;stroke:#cccccc;stroke-linecap:square;stroke-linejoin:miter;"/>
   </g>
   <g id="patch_4">
    <path d="M 388.8 252 
L 388.8 34.56 
" style="fill:none;stroke:#cccccc;stroke-linecap:square;stroke-linejoin:miter;"/>
   </g>
   <g id="patch_5">
    <path d="M 54 252 
L 388.8 252 
" style="fill:none;stroke:#cccccc;stroke-linecap:square;stroke-linejoin:miter;"/>
   </g>
   <g id="patch_6">
    <path d="M 54 34.56 
L 388.8 34.56 
" style="fill:none;stroke:#cccccc;stroke-linecap:square;stroke-linejoin:miter;"/>
   </g>
  </g>
 </g>
 <defs>
  <clipPath id="p5b899b2ca3">
   <rect height="217.44" width="334.8" x="54" y="34.56"/>
  </clipPath>
 </defs>
</svg>
