<?xml version="1.0" encoding="utf-8" standalone="no"?>
<!DOCTYPE svg PUBLIC "-//W3C//DTD SVG 1.1//EN"
  "http://www.w3.org/Graphics/SVG/1.1/DTD/svg11.dtd">
<!-- Created with matplotlib (http://matplotlib.org/) -->
<svg height="288pt" version="1.1" viewBox="0 0 432 288" width="432pt" xmlns="http://www.w3.org/2000/svg" xmlns:xlink="http://www.w3.org/1999/xlink">
 <defs>
  <style type="text/css">
*{stroke-linecap:butt;stroke-linejoin:round;}
  </style>
 </defs>
 <g id="figure_1">
  <g id="patch_1">
   <path d="M 0 288 
L 432 288 
L 432 0 
L 0 0 
z
" style="fill:#ffffff;"/>
  </g>
  <g id="axes_1">
   <g id="patch_2">
    <path d="M 54 252 
L 388.8 252 
L 388.8 34.56 
L 54 34.56 
z
" style="fill:#ffffff;"/>
   </g>
   <g id="matplotlib.axis_1">
    <g id="xtick_1">
     <g id="line2d_1">
      <path clip-path="url(#pcb19f677a6)" d="M 69.218182 252 
L 69.218182 34.56 
" style="fill:none;stroke:#cccccc;stroke-linecap:round;"/>
     </g>
     <g id="line2d_2"/>
     <g id="text_1">
      <!-- 10 -->
      <defs>
       <path d="M 37.25 0 
L 28.46875 0 
L 28.46875 56 
Q 25.296875 52.984375 20.140625 49.953125 
Q 14.984375 46.921875 10.890625 45.40625 
L 10.890625 53.90625 
Q 18.265625 57.375 23.78125 62.296875 
Q 29.296875 67.234375 31.59375 71.875 
L 37.25 71.875 
z
" id="ArialMT-31"/>
       <path d="M 4.15625 35.296875 
Q 4.15625 48 6.765625 55.734375 
Q 9.375 63.484375 14.515625 67.671875 
Q 19.671875 71.875 27.484375 71.875 
Q 33.25 71.875 37.59375 69.546875 
Q 41.9375 67.234375 44.765625 62.859375 
Q 47.609375 58.5 49.21875 52.21875 
Q 50.828125 45.953125 50.828125 35.296875 
Q 50.828125 22.703125 48.234375 14.96875 
Q 45.65625 7.234375 40.5 3 
Q 35.359375 -1.21875 27.484375 -1.21875 
Q 17.140625 -1.21875 11.234375 6.203125 
Q 4.15625 15.140625 4.15625 35.296875 
z
M 13.1875 35.296875 
Q 13.1875 17.671875 17.3125 11.828125 
Q 21.4375 6 27.484375 6 
Q 33.546875 6 37.671875 11.859375 
Q 41.796875 17.71875 41.796875 35.296875 
Q 41.796875 52.984375 37.671875 58.78125 
Q 33.546875 64.59375 27.390625 64.59375 
Q 21.34375 64.59375 17.71875 59.46875 
Q 13.1875 52.9375 13.1875 35.296875 
z
" id="ArialMT-30"/>
      </defs>
      <g style="fill:#262626;" transform="translate(63.657244 266.157812)scale(0.1 -0.1)">
       <use xlink:href="#ArialMT-31"/>
       <use x="55.615234" xlink:href="#ArialMT-30"/>
      </g>
     </g>
    </g>
    <g id="xtick_2">
     <g id="line2d_3">
      <path clip-path="url(#pcb19f677a6)" d="M 107.263636 252 
L 107.263636 34.56 
" style="fill:none;stroke:#cccccc;stroke-linecap:round;"/>
     </g>
     <g id="line2d_4"/>
     <g id="text_2">
      <!-- 15 -->
      <defs>
       <path d="M 4.15625 18.75 
L 13.375 19.53125 
Q 14.40625 12.796875 18.140625 9.390625 
Q 21.875 6 27.15625 6 
Q 33.5 6 37.890625 10.78125 
Q 42.28125 15.578125 42.28125 23.484375 
Q 42.28125 31 38.0625 35.34375 
Q 33.84375 39.703125 27 39.703125 
Q 22.75 39.703125 19.328125 37.765625 
Q 15.921875 35.84375 13.96875 32.765625 
L 5.71875 33.84375 
L 12.640625 70.609375 
L 48.25 70.609375 
L 48.25 62.203125 
L 19.671875 62.203125 
L 15.828125 42.96875 
Q 22.265625 47.46875 29.34375 47.46875 
Q 38.71875 47.46875 45.15625 40.96875 
Q 51.609375 34.46875 51.609375 24.265625 
Q 51.609375 14.546875 45.953125 7.46875 
Q 39.0625 -1.21875 27.15625 -1.21875 
Q 17.390625 -1.21875 11.203125 4.25 
Q 5.03125 9.71875 4.15625 18.75 
z
" id="ArialMT-35"/>
      </defs>
      <g style="fill:#262626;" transform="translate(101.702699 266.157812)scale(0.1 -0.1)">
       <use xlink:href="#ArialMT-31"/>
       <use x="55.615234" xlink:href="#ArialMT-35"/>
      </g>
     </g>
    </g>
    <g id="xtick_3">
     <g id="line2d_5">
      <path clip-path="url(#pcb19f677a6)" d="M 145.309091 252 
L 145.309091 34.56 
" style="fill:none;stroke:#cccccc;stroke-linecap:round;"/>
     </g>
     <g id="line2d_6"/>
     <g id="text_3">
      <!-- 20 -->
      <defs>
       <path d="M 50.34375 8.453125 
L 50.34375 0 
L 3.03125 0 
Q 2.9375 3.171875 4.046875 6.109375 
Q 5.859375 10.9375 9.828125 15.625 
Q 13.8125 20.3125 21.34375 26.46875 
Q 33.015625 36.03125 37.109375 41.625 
Q 41.21875 47.21875 41.21875 52.203125 
Q 41.21875 57.421875 37.46875 61 
Q 33.734375 64.59375 27.734375 64.59375 
Q 21.390625 64.59375 17.578125 60.78125 
Q 13.765625 56.984375 13.71875 50.25 
L 4.6875 51.171875 
Q 5.609375 61.28125 11.65625 66.578125 
Q 17.71875 71.875 27.9375 71.875 
Q 38.234375 71.875 44.234375 66.15625 
Q 50.25 60.453125 50.25 52 
Q 50.25 47.703125 48.484375 43.546875 
Q 46.734375 39.40625 42.65625 34.8125 
Q 38.578125 30.21875 29.109375 22.21875 
Q 21.1875 15.578125 18.9375 13.203125 
Q 16.703125 10.84375 15.234375 8.453125 
z
" id="ArialMT-32"/>
      </defs>
      <g style="fill:#262626;" transform="translate(139.748153 266.157812)scale(0.1 -0.1)">
       <use xlink:href="#ArialMT-32"/>
       <use x="55.615234" xlink:href="#ArialMT-30"/>
      </g>
     </g>
    </g>
    <g id="xtick_4">
     <g id="line2d_7">
      <path clip-path="url(#pcb19f677a6)" d="M 183.354545 252 
L 183.354545 34.56 
" style="fill:none;stroke:#cccccc;stroke-linecap:round;"/>
     </g>
     <g id="line2d_8"/>
     <g id="text_4">
      <!-- 25 -->
      <g style="fill:#262626;" transform="translate(177.793608 266.157812)scale(0.1 -0.1)">
       <use xlink:href="#ArialMT-32"/>
       <use x="55.615234" xlink:href="#ArialMT-35"/>
      </g>
     </g>
    </g>
    <g id="xtick_5">
     <g id="line2d_9">
      <path clip-path="url(#pcb19f677a6)" d="M 221.4 252 
L 221.4 34.56 
" style="fill:none;stroke:#cccccc;stroke-linecap:round;"/>
     </g>
     <g id="line2d_10"/>
     <g id="text_5">
      <!-- 30 -->
      <defs>
       <path d="M 4.203125 18.890625 
L 12.984375 20.0625 
Q 14.5 12.59375 18.140625 9.296875 
Q 21.78125 6 27 6 
Q 33.203125 6 37.46875 10.296875 
Q 41.75 14.59375 41.75 20.953125 
Q 41.75 27 37.796875 30.921875 
Q 33.84375 34.859375 27.734375 34.859375 
Q 25.25 34.859375 21.53125 33.890625 
L 22.515625 41.609375 
Q 23.390625 41.5 23.921875 41.5 
Q 29.546875 41.5 34.03125 44.421875 
Q 38.53125 47.359375 38.53125 53.46875 
Q 38.53125 58.296875 35.25 61.46875 
Q 31.984375 64.65625 26.8125 64.65625 
Q 21.6875 64.65625 18.265625 61.421875 
Q 14.84375 58.203125 13.875 51.765625 
L 5.078125 53.328125 
Q 6.6875 62.15625 12.390625 67.015625 
Q 18.109375 71.875 26.609375 71.875 
Q 32.46875 71.875 37.390625 69.359375 
Q 42.328125 66.84375 44.9375 62.5 
Q 47.5625 58.15625 47.5625 53.265625 
Q 47.5625 48.640625 45.0625 44.828125 
Q 42.578125 41.015625 37.703125 38.765625 
Q 44.046875 37.3125 47.5625 32.6875 
Q 51.078125 28.078125 51.078125 21.140625 
Q 51.078125 11.765625 44.234375 5.25 
Q 37.40625 -1.265625 26.953125 -1.265625 
Q 17.53125 -1.265625 11.296875 4.34375 
Q 5.078125 9.96875 4.203125 18.890625 
z
" id="ArialMT-33"/>
      </defs>
      <g style="fill:#262626;" transform="translate(215.839063 266.157812)scale(0.1 -0.1)">
       <use xlink:href="#ArialMT-33"/>
       <use x="55.615234" xlink:href="#ArialMT-30"/>
      </g>
     </g>
    </g>
    <g id="xtick_6">
     <g id="line2d_11">
      <path clip-path="url(#pcb19f677a6)" d="M 259.445455 252 
L 259.445455 34.56 
" style="fill:none;stroke:#cccccc;stroke-linecap:round;"/>
     </g>
     <g id="line2d_12"/>
     <g id="text_6">
      <!-- 35 -->
      <g style="fill:#262626;" transform="translate(253.884517 266.157812)scale(0.1 -0.1)">
       <use xlink:href="#ArialMT-33"/>
       <use x="55.615234" xlink:href="#ArialMT-35"/>
      </g>
     </g>
    </g>
    <g id="xtick_7">
     <g id="line2d_13">
      <path clip-path="url(#pcb19f677a6)" d="M 297.490909 252 
L 297.490909 34.56 
" style="fill:none;stroke:#cccccc;stroke-linecap:round;"/>
     </g>
     <g id="line2d_14"/>
     <g id="text_7">
      <!-- 40 -->
      <defs>
       <path d="M 32.328125 0 
L 32.328125 17.140625 
L 1.265625 17.140625 
L 1.265625 25.203125 
L 33.9375 71.578125 
L 41.109375 71.578125 
L 41.109375 25.203125 
L 50.78125 25.203125 
L 50.78125 17.140625 
L 41.109375 17.140625 
L 41.109375 0 
z
M 32.328125 25.203125 
L 32.328125 57.46875 
L 9.90625 25.203125 
z
" id="ArialMT-34"/>
      </defs>
      <g style="fill:#262626;" transform="translate(291.929972 266.157812)scale(0.1 -0.1)">
       <use xlink:href="#ArialMT-34"/>
       <use x="55.615234" xlink:href="#ArialMT-30"/>
      </g>
     </g>
    </g>
    <g id="xtick_8">
     <g id="line2d_15">
      <path clip-path="url(#pcb19f677a6)" d="M 335.536364 252 
L 335.536364 34.56 
" style="fill:none;stroke:#cccccc;stroke-linecap:round;"/>
     </g>
     <g id="line2d_16"/>
     <g id="text_8">
      <!-- 45 -->
      <g style="fill:#262626;" transform="translate(329.975426 266.157812)scale(0.1 -0.1)">
       <use xlink:href="#ArialMT-34"/>
       <use x="55.615234" xlink:href="#ArialMT-35"/>
      </g>
     </g>
    </g>
    <g id="xtick_9">
     <g id="line2d_17">
      <path clip-path="url(#pcb19f677a6)" d="M 373.581818 252 
L 373.581818 34.56 
" style="fill:none;stroke:#cccccc;stroke-linecap:round;"/>
     </g>
     <g id="line2d_18"/>
     <g id="text_9">
      <!-- 50 -->
      <g style="fill:#262626;" transform="translate(368.020881 266.157812)scale(0.1 -0.1)">
       <use xlink:href="#ArialMT-35"/>
       <use x="55.615234" xlink:href="#ArialMT-30"/>
      </g>
     </g>
    </g>
   </g>
   <g id="matplotlib.axis_2">
    <g id="ytick_1">
     <g id="line2d_19">
      <path clip-path="url(#pcb19f677a6)" d="M 54 242.116364 
L 388.8 242.116364 
" style="fill:none;stroke:#cccccc;stroke-linecap:round;"/>
     </g>
     <g id="line2d_20"/>
     <g id="text_10">
      <!-- 0.0 -->
      <defs>
       <path d="M 9.078125 0 
L 9.078125 10.015625 
L 19.09375 10.015625 
L 19.09375 0 
z
" id="ArialMT-2e"/>
      </defs>
      <g style="fill:#262626;" transform="translate(33.1 245.69527)scale(0.1 -0.1)">
       <use xlink:href="#ArialMT-30"/>
       <use x="55.615234" xlink:href="#ArialMT-2e"/>
       <use x="83.398438" xlink:href="#ArialMT-30"/>
      </g>
     </g>
    </g>
    <g id="ytick_2">
     <g id="line2d_21">
      <path clip-path="url(#pcb19f677a6)" d="M 54 202.581818 
L 388.8 202.581818 
" style="fill:none;stroke:#cccccc;stroke-linecap:round;"/>
     </g>
     <g id="line2d_22"/>
     <g id="text_11">
      <!-- 0.2 -->
      <g style="fill:#262626;" transform="translate(33.1 206.160724)scale(0.1 -0.1)">
       <use xlink:href="#ArialMT-30"/>
       <use x="55.615234" xlink:href="#ArialMT-2e"/>
       <use x="83.398438" xlink:href="#ArialMT-32"/>
      </g>
     </g>
    </g>
    <g id="ytick_3">
     <g id="line2d_23">
      <path clip-path="url(#pcb19f677a6)" d="M 54 163.047273 
L 388.8 163.047273 
" style="fill:none;stroke:#cccccc;stroke-linecap:round;"/>
     </g>
     <g id="line2d_24"/>
     <g id="text_12">
      <!-- 0.4 -->
      <g style="fill:#262626;" transform="translate(33.1 166.626179)scale(0.1 -0.1)">
       <use xlink:href="#ArialMT-30"/>
       <use x="55.615234" xlink:href="#ArialMT-2e"/>
       <use x="83.398438" xlink:href="#ArialMT-34"/>
      </g>
     </g>
    </g>
    <g id="ytick_4">
     <g id="line2d_25">
      <path clip-path="url(#pcb19f677a6)" d="M 54 123.512727 
L 388.8 123.512727 
" style="fill:none;stroke:#cccccc;stroke-linecap:round;"/>
     </g>
     <g id="line2d_26"/>
     <g id="text_13">
      <!-- 0.6 -->
      <defs>
       <path d="M 49.75 54.046875 
L 41.015625 53.375 
Q 39.84375 58.546875 37.703125 60.890625 
Q 34.125 64.65625 28.90625 64.65625 
Q 24.703125 64.65625 21.53125 62.3125 
Q 17.390625 59.28125 14.984375 53.46875 
Q 12.59375 47.65625 12.5 36.921875 
Q 15.671875 41.75 20.265625 44.09375 
Q 24.859375 46.4375 29.890625 46.4375 
Q 38.671875 46.4375 44.84375 39.96875 
Q 51.03125 33.5 51.03125 23.25 
Q 51.03125 16.5 48.125 10.71875 
Q 45.21875 4.9375 40.140625 1.859375 
Q 35.0625 -1.21875 28.609375 -1.21875 
Q 17.625 -1.21875 10.6875 6.859375 
Q 3.765625 14.9375 3.765625 33.5 
Q 3.765625 54.25 11.421875 63.671875 
Q 18.109375 71.875 29.4375 71.875 
Q 37.890625 71.875 43.28125 67.140625 
Q 48.6875 62.40625 49.75 54.046875 
z
M 13.875 23.1875 
Q 13.875 18.65625 15.796875 14.5 
Q 17.71875 10.359375 21.1875 8.171875 
Q 24.65625 6 28.46875 6 
Q 34.03125 6 38.03125 10.484375 
Q 42.046875 14.984375 42.046875 22.703125 
Q 42.046875 30.125 38.078125 34.390625 
Q 34.125 38.671875 28.125 38.671875 
Q 22.171875 38.671875 18.015625 34.390625 
Q 13.875 30.125 13.875 23.1875 
z
" id="ArialMT-36"/>
      </defs>
      <g style="fill:#262626;" transform="translate(33.1 127.091634)scale(0.1 -0.1)">
       <use xlink:href="#ArialMT-30"/>
       <use x="55.615234" xlink:href="#ArialMT-2e"/>
       <use x="83.398438" xlink:href="#ArialMT-36"/>
      </g>
     </g>
    </g>
    <g id="ytick_5">
     <g id="line2d_27">
      <path clip-path="url(#pcb19f677a6)" d="M 54 83.978182 
L 388.8 83.978182 
" style="fill:none;stroke:#cccccc;stroke-linecap:round;"/>
     </g>
     <g id="line2d_28"/>
     <g id="text_14">
      <!-- 0.8 -->
      <defs>
       <path d="M 17.671875 38.8125 
Q 12.203125 40.828125 9.5625 44.53125 
Q 6.9375 48.25 6.9375 53.421875 
Q 6.9375 61.234375 12.546875 66.546875 
Q 18.171875 71.875 27.484375 71.875 
Q 36.859375 71.875 42.578125 66.421875 
Q 48.296875 60.984375 48.296875 53.171875 
Q 48.296875 48.1875 45.671875 44.5 
Q 43.0625 40.828125 37.75 38.8125 
Q 44.34375 36.671875 47.78125 31.875 
Q 51.21875 27.09375 51.21875 20.453125 
Q 51.21875 11.28125 44.71875 5.03125 
Q 38.234375 -1.21875 27.640625 -1.21875 
Q 17.046875 -1.21875 10.546875 5.046875 
Q 4.046875 11.328125 4.046875 20.703125 
Q 4.046875 27.6875 7.59375 32.390625 
Q 11.140625 37.109375 17.671875 38.8125 
z
M 15.921875 53.71875 
Q 15.921875 48.640625 19.1875 45.40625 
Q 22.46875 42.1875 27.6875 42.1875 
Q 32.765625 42.1875 36.015625 45.375 
Q 39.265625 48.578125 39.265625 53.21875 
Q 39.265625 58.0625 35.90625 61.359375 
Q 32.5625 64.65625 27.59375 64.65625 
Q 22.5625 64.65625 19.234375 61.421875 
Q 15.921875 58.203125 15.921875 53.71875 
z
M 13.09375 20.65625 
Q 13.09375 16.890625 14.875 13.375 
Q 16.65625 9.859375 20.171875 7.921875 
Q 23.6875 6 27.734375 6 
Q 34.03125 6 38.125 10.046875 
Q 42.234375 14.109375 42.234375 20.359375 
Q 42.234375 26.703125 38.015625 30.859375 
Q 33.796875 35.015625 27.4375 35.015625 
Q 21.234375 35.015625 17.15625 30.90625 
Q 13.09375 26.8125 13.09375 20.65625 
z
" id="ArialMT-38"/>
      </defs>
      <g style="fill:#262626;" transform="translate(33.1 87.557088)scale(0.1 -0.1)">
       <use xlink:href="#ArialMT-30"/>
       <use x="55.615234" xlink:href="#ArialMT-2e"/>
       <use x="83.398438" xlink:href="#ArialMT-38"/>
      </g>
     </g>
    </g>
    <g id="ytick_6">
     <g id="line2d_29">
      <path clip-path="url(#pcb19f677a6)" d="M 54 44.443636 
L 388.8 44.443636 
" style="fill:none;stroke:#cccccc;stroke-linecap:round;"/>
     </g>
     <g id="line2d_30"/>
     <g id="text_15">
      <!-- 1.0 -->
      <g style="fill:#262626;" transform="translate(33.1 48.022543)scale(0.1 -0.1)">
       <use xlink:href="#ArialMT-31"/>
       <use x="55.615234" xlink:href="#ArialMT-2e"/>
       <use x="83.398438" xlink:href="#ArialMT-30"/>
      </g>
     </g>
    </g>
   </g>
   <g id="line2d_31">
    <defs>
     <path d="M 0 3.5 
C 0.928211 3.5 1.81853 3.131218 2.474874 2.474874 
C 3.131218 1.81853 3.5 0.928211 3.5 0 
C 3.5 -0.928211 3.131218 -1.81853 2.474874 -2.474874 
C 1.81853 -3.131218 0.928211 -3.5 0 -3.5 
C -0.928211 -3.5 -1.81853 -3.131218 -2.474874 -2.474874 
C -3.131218 -1.81853 -3.5 -0.928211 -3.5 0 
C -3.5 0.928211 -3.131218 1.81853 -2.474874 2.474874 
C -1.81853 3.131218 -0.928211 3.5 0 3.5 
z
" id="m67d2d48583"/>
    </defs>
    <g clip-path="url(#pcb19f677a6)">
     <use style="fill:#4c72b0;" x="69.218182" xlink:href="#m67d2d48583" y="44.443636"/>
     <use style="fill:#4c72b0;" x="69.218182" xlink:href="#m67d2d48583" y="44.443636"/>
     <use style="fill:#4c72b0;" x="69.218182" xlink:href="#m67d2d48583" y="44.443636"/>
     <use style="fill:#4c72b0;" x="69.218182" xlink:href="#m67d2d48583" y="242.116364"/>
     <use style="fill:#4c72b0;" x="69.218182" xlink:href="#m67d2d48583" y="242.116364"/>
     <use style="fill:#4c72b0;" x="69.218182" xlink:href="#m67d2d48583" y="242.116364"/>
     <use style="fill:#4c72b0;" x="107.263636" xlink:href="#m67d2d48583" y="44.443636"/>
     <use style="fill:#4c72b0;" x="107.263636" xlink:href="#m67d2d48583" y="44.443636"/>
     <use style="fill:#4c72b0;" x="107.263636" xlink:href="#m67d2d48583" y="44.443636"/>
     <use style="fill:#4c72b0;" x="107.263636" xlink:href="#m67d2d48583" y="44.443636"/>
     <use style="fill:#4c72b0;" x="107.263636" xlink:href="#m67d2d48583" y="242.116364"/>
     <use style="fill:#4c72b0;" x="107.263636" xlink:href="#m67d2d48583" y="242.116364"/>
     <use style="fill:#4c72b0;" x="107.263636" xlink:href="#m67d2d48583" y="242.116364"/>
     <use style="fill:#4c72b0;" x="107.263636" xlink:href="#m67d2d48583" y="242.116364"/>
     <use style="fill:#4c72b0;" x="114.872727" xlink:href="#m67d2d48583" y="44.443636"/>
     <use style="fill:#4c72b0;" x="114.872727" xlink:href="#m67d2d48583" y="44.443636"/>
     <use style="fill:#4c72b0;" x="114.872727" xlink:href="#m67d2d48583" y="44.443636"/>
     <use style="fill:#4c72b0;" x="114.872727" xlink:href="#m67d2d48583" y="242.116364"/>
     <use style="fill:#4c72b0;" x="114.872727" xlink:href="#m67d2d48583" y="242.116364"/>
     <use style="fill:#4c72b0;" x="114.872727" xlink:href="#m67d2d48583" y="242.116364"/>
     <use style="fill:#4c72b0;" x="130.090909" xlink:href="#m67d2d48583" y="44.443636"/>
     <use style="fill:#4c72b0;" x="130.090909" xlink:href="#m67d2d48583" y="44.443636"/>
     <use style="fill:#4c72b0;" x="130.090909" xlink:href="#m67d2d48583" y="242.116364"/>
     <use style="fill:#4c72b0;" x="130.090909" xlink:href="#m67d2d48583" y="242.116364"/>
     <use style="fill:#4c72b0;" x="130.090909" xlink:href="#m67d2d48583" y="242.116364"/>
     <use style="fill:#4c72b0;" x="130.090909" xlink:href="#m67d2d48583" y="44.443636"/>
     <use style="fill:#4c72b0;" x="145.309091" xlink:href="#m67d2d48583" y="44.443636"/>
     <use style="fill:#4c72b0;" x="145.309091" xlink:href="#m67d2d48583" y="242.116364"/>
     <use style="fill:#4c72b0;" x="145.309091" xlink:href="#m67d2d48583" y="242.116364"/>
     <use style="fill:#4c72b0;" x="145.309091" xlink:href="#m67d2d48583" y="242.116364"/>
     <use style="fill:#4c72b0;" x="145.309091" xlink:href="#m67d2d48583" y="44.443636"/>
     <use style="fill:#4c72b0;" x="183.354545" xlink:href="#m67d2d48583" y="44.443636"/>
     <use style="fill:#4c72b0;" x="183.354545" xlink:href="#m67d2d48583" y="242.116364"/>
     <use style="fill:#4c72b0;" x="183.354545" xlink:href="#m67d2d48583" y="242.116364"/>
     <use style="fill:#4c72b0;" x="183.354545" xlink:href="#m67d2d48583" y="242.116364"/>
     <use style="fill:#4c72b0;" x="183.354545" xlink:href="#m67d2d48583" y="242.116364"/>
     <use style="fill:#4c72b0;" x="183.354545" xlink:href="#m67d2d48583" y="44.443636"/>
     <use style="fill:#4c72b0;" x="221.4" xlink:href="#m67d2d48583" y="44.443636"/>
     <use style="fill:#4c72b0;" x="221.4" xlink:href="#m67d2d48583" y="242.116364"/>
     <use style="fill:#4c72b0;" x="221.4" xlink:href="#m67d2d48583" y="242.116364"/>
     <use style="fill:#4c72b0;" x="221.4" xlink:href="#m67d2d48583" y="242.116364"/>
     <use style="fill:#4c72b0;" x="221.4" xlink:href="#m67d2d48583" y="242.116364"/>
     <use style="fill:#4c72b0;" x="221.4" xlink:href="#m67d2d48583" y="44.443636"/>
     <use style="fill:#4c72b0;" x="259.445455" xlink:href="#m67d2d48583" y="242.116364"/>
     <use style="fill:#4c72b0;" x="259.445455" xlink:href="#m67d2d48583" y="242.116364"/>
     <use style="fill:#4c72b0;" x="259.445455" xlink:href="#m67d2d48583" y="242.116364"/>
     <use style="fill:#4c72b0;" x="259.445455" xlink:href="#m67d2d48583" y="242.116364"/>
     <use style="fill:#4c72b0;" x="259.445455" xlink:href="#m67d2d48583" y="242.116364"/>
     <use style="fill:#4c72b0;" x="297.490909" xlink:href="#m67d2d48583" y="44.443636"/>
     <use style="fill:#4c72b0;" x="297.490909" xlink:href="#m67d2d48583" y="242.116364"/>
     <use style="fill:#4c72b0;" x="297.490909" xlink:href="#m67d2d48583" y="242.116364"/>
     <use style="fill:#4c72b0;" x="297.490909" xlink:href="#m67d2d48583" y="242.116364"/>
     <use style="fill:#4c72b0;" x="297.490909" xlink:href="#m67d2d48583" y="242.116364"/>
     <use style="fill:#4c72b0;" x="297.490909" xlink:href="#m67d2d48583" y="242.116364"/>
     <use style="fill:#4c72b0;" x="297.490909" xlink:href="#m67d2d48583" y="242.116364"/>
     <use style="fill:#4c72b0;" x="335.536364" xlink:href="#m67d2d48583" y="242.116364"/>
     <use style="fill:#4c72b0;" x="335.536364" xlink:href="#m67d2d48583" y="242.116364"/>
     <use style="fill:#4c72b0;" x="373.581818" xlink:href="#m67d2d48583" y="242.116364"/>
     <use style="fill:#4c72b0;" x="373.581818" xlink:href="#m67d2d48583" y="242.116364"/>
    </g>
   </g>
   <g id="line2d_32">
    <path clip-path="url(#pcb19f677a6)" d="M 69.218182 44.443636 
L 76.827273 44.443636 
L 84.436364 44.443636 
L 92.045455 44.443636 
L 99.654545 44.443636 
L 107.263636 44.443636 
L 114.872727 44.443636 
L 122.481818 44.443636 
L 130.090909 44.443636 
L 137.7 44.443636 
L 145.309091 242.116364 
L 152.918182 242.116364 
L 160.527273 242.116364 
L 168.136364 242.116364 
L 175.745455 242.116364 
L 183.354545 242.116364 
L 190.963636 242.116364 
L 198.572727 242.116364 
L 206.181818 242.116364 
L 213.790909 242.116364 
L 221.4 242.116364 
L 229.009091 242.116364 
L 236.618182 242.116364 
L 244.227273 242.116364 
L 251.836364 242.116364 
L 259.445455 242.116364 
L 267.054545 242.116364 
L 274.663636 242.116364 
L 282.272727 242.116364 
L 289.881818 242.116364 
L 297.490909 242.116364 
L 305.1 242.116364 
L 312.709091 242.116364 
L 320.318182 242.116364 
L 327.927273 242.116364 
L 335.536364 242.116364 
L 343.145455 242.116364 
L 350.754545 242.116364 
L 358.363636 242.116364 
L 365.972727 242.116364 
L 373.581818 242.116364 
" style="fill:none;stroke:#55a868;stroke-linecap:round;stroke-width:1.75;"/>
   </g>
   <g id="patch_3">
    <path d="M 54 252 
L 54 34.56 
" style="fill:none;stroke:#cccccc;stroke-linecap:square;stroke-linejoin:miter;"/>
   </g>
   <g id="patch_4">
    <path d="M 388.8 252 
L 388.8 34.56 
" style="fill:none;stroke:#cccccc;stroke-linecap:square;stroke-linejoin:miter;"/>
   </g>
   <g id="patch_5">
    <path d="M 54 252 
L 388.8 252 
" style="fill:none;stroke:#cccccc;stroke-linecap:square;stroke-linejoin:miter;"/>
   </g>
   <g id="patch_6">
    <path d="M 54 34.56 
L 388.8 34.56 
" style="fill:none;stroke:#cccccc;stroke-linecap:square;stroke-linejoin:miter;"/>
   </g>
  </g>
 </g>
 <defs>
  <clipPath id="pcb19f677a6">
   <rect height="217.44" width="334.8" x="54" y="34.56"/>
  </clipPath>
 </defs>
</svg>
